<?xml version="1.0" encoding="UTF-8"?>
<svg version="1.1" xmlns="http://www.w3.org/2000/svg" width="650" height="365">
<path d="M0 0 C1.04830238 0.00017939 1.04830238 0.00017939 2.11778259 0.0003624 C35.4547548 0.00759195 35.4547548 0.00759195 51.6875 1 C52.87674072 1.07001221 54.06598145 1.14002441 55.29125977 1.2121582 C64.23560272 1.87851607 74.56264089 2.95216267 81.4375 9.1875 C86.50407797 15.73132118 88.56666827 22.04574788 89.4375 30.1875 C89.55853088 31.23894447 89.55853088 31.23894447 89.68200684 32.31163025 C90.34340958 38.36169243 90.59777025 44.32663272 90.60546875 50.41015625 C90.60879715 51.35451035 90.61212555 52.29886444 90.61555481 53.27183533 C90.6205842 55.25926228 90.62296438 57.24669755 90.62280273 59.23413086 C90.62497675 62.21808412 90.64314138 65.20165936 90.66210938 68.18554688 C90.77059574 104.52112095 90.77059574 104.52112095 82.0625 115.0625 C71.40855603 123.68712131 59.17600929 124.24997578 45.9140625 124.76171875 C44.89217834 124.80235443 43.87029419 124.84299011 42.81744385 124.88485718 C29.7246426 125.35118377 16.62654544 125.33866839 3.52734375 125.31787109 C-0.09827777 125.31215277 -3.72382625 125.31558292 -7.34944534 125.32130432 C-32.79748224 125.3555427 -32.79748224 125.3555427 -45.0625 124.7578125 C-46.1950119 124.70284103 -46.1950119 124.70284103 -47.35040283 124.64675903 C-70.3150152 123.32489642 -70.3150152 123.32489642 -77.5625 116.1875 C-82.69998223 109.6428521 -84.85054058 103.00933942 -85.66796875 94.77734375 C-85.75185349 93.94895493 -85.83573822 93.1205661 -85.92216492 92.26707458 C-86.77631949 83.06074605 -86.89938732 73.86714796 -86.87817383 64.62670898 C-86.87500586 61.75531229 -86.89862651 58.88494316 -86.92382812 56.01367188 C-86.95797233 46.69329941 -86.61425591 37.51988543 -85.35546875 28.27734375 C-85.25575272 27.47752579 -85.15603668 26.67770782 -85.05329895 25.85365295 C-83.83041209 17.97004666 -79.83639656 11.17809954 -73.5625 6.1875 C-65.79276021 2.12604511 -56.1488098 1.88186247 -47.5625 1.1875 C-46.48105713 1.09847412 -45.39961426 1.00944824 -44.28540039 0.91772461 C-29.5428272 -0.12158361 -14.77142831 -0.01115001 0 0 Z M-14.5625 38.1875 C-14.5625 54.3575 -14.5625 70.5275 -14.5625 87.1875 C-7.19815781 83.5053289 -0.05774483 79.86032724 7 75.6875 C13.75283705 71.73440679 20.53025345 67.86619086 27.4375 64.1875 C26.19981969 60.47445906 25.26228743 60.23906818 21.90625 58.40234375 C20.95766113 57.87600342 20.00907227 57.34966309 19.03173828 56.80737305 C18.01063965 56.25218994 16.98954102 55.69700684 15.9375 55.125 C13.84040765 53.96487503 11.74406024 52.80340254 9.6484375 51.640625 C8.60268555 51.06248047 7.55693359 50.48433594 6.47949219 49.88867188 C1.39883756 47.04741976 -3.6007045 44.07226373 -8.59570312 41.08374023 C-11.4024213 39.08250406 -11.4024213 39.08250406 -14.5625 38.1875 Z " fill="#FC0000" transform="translate(133.5625,120.8125)"/>
<path d="M0 0 C1.12535156 0.00580078 1.12535156 0.00580078 2.2734375 0.01171875 C3.02367187 0.00785156 3.77390625 0.00398438 4.546875 0 C10.14682697 0.01010822 10.14682697 0.01010822 11.2734375 1.13671875 C11.43347238 3.8009856 11.53286639 6.44232303 11.58984375 9.109375 C11.61062485 9.90701767 11.63140594 10.70466034 11.65281677 11.526474 C11.71839908 14.08396486 11.77723717 16.64156155 11.8359375 19.19921875 C11.87911449 20.92904757 11.92272851 22.65886554 11.96679688 24.38867188 C12.07408922 28.63791135 12.17533176 32.88725765 12.2734375 37.13671875 C13.0564624 36.50217773 13.8394873 35.86763672 14.64624023 35.21386719 C19.88973804 31.06818562 23.72328246 30.58500318 30.2734375 31.13671875 C34.81062478 32.24580897 36.77552387 34.22332073 39.2734375 38.13671875 C43.88178444 48.50037898 43.45492656 59.82297038 43.4609375 70.94921875 C43.47318359 72.13064453 43.48542969 73.31207031 43.49804688 74.52929688 C43.51860883 87.03782031 43.3132069 100.54908454 34.2734375 110.13671875 C29.7890044 112.8618007 25.37713101 112.77850057 20.2734375 112.13671875 C16.36302483 110.7641898 13.20692368 109.07020493 10.2734375 106.13671875 C9.6134375 107.78671875 8.9534375 109.43671875 8.2734375 111.13671875 C3.3234375 111.13671875 -1.6265625 111.13671875 -6.7265625 111.13671875 C-6.74968255 96.81177391 -6.76747586 82.48683348 -6.77837467 68.16187382 C-6.78360424 61.51098345 -6.79070322 54.86011089 -6.80200195 48.20922852 C-6.81282821 41.79668998 -6.81883878 35.38416371 -6.82143974 28.97161674 C-6.82329447 26.51907597 -6.82691597 24.0665359 -6.83229256 21.61400032 C-6.83949952 18.19195198 -6.84055359 14.76995504 -6.84008789 11.34790039 C-6.84368317 10.32291443 -6.84727844 9.29792847 -6.85098267 8.24188232 C-6.849608 7.31495071 -6.84823334 6.3880191 -6.84681702 5.43299866 C-6.84773881 4.62274262 -6.8486606 3.81248659 -6.84961033 2.97767735 C-6.57498415 -1.13109426 -3.39139553 0.00612165 0 0 Z M13.14038086 47.02490234 C10.47329997 51.47038593 10.71706328 55.2704865 10.77734375 60.36328125 C10.77588852 61.34791351 10.77443329 62.33254578 10.77293396 63.34701538 C10.77459055 65.42310554 10.7861249 67.49920829 10.80688477 69.57519531 C10.83590076 72.7576894 10.8274763 75.93852361 10.81445312 79.12109375 C10.82068886 81.13933103 10.82907851 83.15756305 10.83984375 85.17578125 C10.83690811 86.12893219 10.83397247 87.08208313 10.83094788 88.06411743 C10.84363205 88.94868622 10.85631622 89.833255 10.86938477 90.74462891 C10.87478775 91.52230621 10.88019073 92.29998352 10.88575745 93.10122681 C11.37717029 95.68136183 12.19414281 96.56955084 14.2734375 98.13671875 C17.2734375 98.72005208 17.2734375 98.72005208 20.2734375 98.13671875 C23.78127374 95.11272199 23.76955408 91.55577918 24.2734375 87.13671875 C24.45915756 82.38977638 24.45925823 77.64405602 24.45874023 72.89404297 C24.46093167 70.64271264 24.4791433 68.39186927 24.49804688 66.140625 C24.5009808 64.6914079 24.5029656 63.24218851 24.50390625 61.79296875 C24.50801514 60.49166016 24.51212402 59.19035156 24.51635742 57.84960938 C24.20170557 53.04033768 23.77324534 48.63652659 20.2734375 45.13671875 C16.89277694 44.51396549 15.74012427 44.72360722 13.14038086 47.02490234 Z " fill="#272727" transform="translate(502.7265625,125.86328125)"/>
<path d="M0 0 C0.79792969 0.00386719 1.59585937 0.00773438 2.41796875 0.01171875 C3.21589844 0.00785156 4.01382812 0.00398437 4.8359375 0 C10.79136108 0.01011108 10.79136108 0.01011108 11.91796875 1.13671875 C12.03103874 3.05336658 12.07480106 4.97413591 12.09155273 6.89404297 C12.10504257 8.12557098 12.11853241 9.357099 12.13243103 10.62594604 C12.13749098 11.28824093 12.14255093 11.95053581 12.14776421 12.63290024 C12.16413529 14.70060005 12.18737174 16.76811512 12.21266174 18.83572388 C12.28354081 24.71574743 12.34354773 30.59584733 12.39477539 36.47607422 C12.42656268 40.06942327 12.46784014 43.66256216 12.51497078 47.25574112 C12.53099592 48.62643782 12.54331515 49.99718299 12.55187798 51.36794662 C12.56402759 53.28557648 12.58921053 55.20311041 12.61499023 57.12060547 C12.6252977 58.21235077 12.63560516 59.30409607 12.64622498 60.42892456 C12.72638076 63.35725089 12.72638076 63.35725089 14.91796875 66.13671875 C18.84872519 65.56219129 18.84872519 65.56219129 21.91796875 63.13671875 C22.24333669 60.4332776 22.24333669 60.4332776 22.22094727 57.23413086 C22.23758926 55.99622299 22.25423126 54.75831512 22.27137756 53.4828949 C22.27993823 52.12661782 22.28843587 50.77034034 22.296875 49.4140625 C22.31304337 48.02924926 22.33022267 46.64444749 22.34837341 45.25965881 C22.39410486 41.61210413 22.4288894 37.96453434 22.46057129 34.3168335 C22.5124106 28.47409778 22.57744001 22.63153013 22.64878654 16.78900337 C22.67168857 14.74321613 22.68791428 12.69745046 22.70350647 10.65159607 C22.71699631 9.41684036 22.73048615 8.18208466 22.74438477 6.90991211 C22.75389664 5.81674179 22.76340851 4.72357147 22.77320862 3.59727478 C22.91796875 1.13671875 22.91796875 1.13671875 23.91796875 0.13671875 C26.76131923 0.036849 29.57494038 -0.00206006 32.41796875 0.01171875 C33.61486328 0.00591797 33.61486328 0.00591797 34.8359375 0 C40.79136108 0.01011108 40.79136108 0.01011108 41.91796875 1.13671875 C42.0182467 3.53481024 42.05415551 5.90411373 42.04736328 8.30273438 C42.0491156 9.05229904 42.05086792 9.80186371 42.05267334 10.57414246 C42.05709195 13.06377444 42.05415385 15.55333598 42.05078125 18.04296875 C42.05145429 19.76550307 42.05242431 21.4880373 42.05368042 23.21057129 C42.0551574 26.82544863 42.05300282 30.4403013 42.04833984 34.05517578 C42.04264255 38.69938368 42.04592155 43.34353379 42.05191231 47.98773956 C42.05551791 51.54608601 42.05437934 55.10441865 42.05178452 58.6627655 C42.05111524 60.37566637 42.05194368 62.08856847 42.05426407 63.8014679 C42.05679058 66.19124697 42.05295005 68.58093116 42.04736328 70.97070312 C42.04938751 71.68554367 42.05141174 72.40038422 42.05349731 73.1368866 C42.03223144 78.02245606 42.03223144 78.02245606 40.91796875 79.13671875 C38.5648332 79.20943616 36.20963207 79.22042743 33.85546875 79.19921875 C31.91994141 79.18568359 31.91994141 79.18568359 29.9453125 79.171875 C28.94628906 79.16027344 27.94726562 79.14867187 26.91796875 79.13671875 C26.25796875 76.82671875 25.59796875 74.51671875 24.91796875 72.13671875 C23.86609375 73.28140625 23.86609375 73.28140625 22.79296875 74.44921875 C17.34369601 79.54310414 12.87083238 80.71942082 5.54296875 80.48046875 C1.70544323 79.97793565 -0.31975878 78.82993441 -3.08203125 76.13671875 C-6.45988307 69.84692571 -7.20625677 63.8298677 -7.21142578 56.7800293 C-7.21457794 55.54242355 -7.2177301 54.30481781 -7.22097778 53.02970886 C-7.21918871 51.69428471 -7.21713793 50.35886088 -7.21484375 49.0234375 C-7.21551791 47.64435306 -7.21648886 46.26526873 -7.21774292 44.88618469 C-7.21921216 42.00736348 -7.21708861 39.12857343 -7.21240234 36.24975586 C-7.2066786 32.5529342 -7.21000555 28.85618472 -7.21597481 25.15936565 C-7.21957848 22.31732127 -7.2184432 19.47529417 -7.21584702 16.63324928 C-7.21517859 15.26923425 -7.21600323 13.90521767 -7.21832657 12.54120445 C-7.22085275 10.64294844 -7.21632296 8.74468693 -7.21142578 6.84643555 C-7.21063019 5.76533005 -7.20983459 4.68422455 -7.20901489 3.57035828 C-6.96018225 -1.19851547 -4.11876425 0.00699281 0 0 Z " fill="#272727" transform="translate(445.08203125,157.86328125)"/>
<path d="M0 0 C0.79792969 0.00386719 1.59585937 0.00773438 2.41796875 0.01171875 C3.21589844 0.00785156 4.01382812 0.00398437 4.8359375 0 C10.79136108 0.01011108 10.79136108 0.01011108 11.91796875 1.13671875 C12.03097728 3.01743466 12.07479461 4.9023434 12.09155273 6.78637695 C12.10504257 7.99465652 12.11853241 9.2029361 12.13243103 10.4478302 C12.14286942 11.76442123 12.1533078 13.08101227 12.1640625 14.4375 C12.17955762 15.79413156 12.19576666 17.15075514 12.21266174 18.50737 C12.28351545 24.28077875 12.34348448 30.05426592 12.39477539 35.82788086 C12.42660408 39.35639732 12.46789439 42.88470153 12.51497078 46.41304588 C12.53875365 48.41154667 12.55172796 50.4101666 12.56455994 52.4087677 C12.58120193 53.62650375 12.59784393 54.84423981 12.61499023 56.09887695 C12.6252977 57.17063675 12.63560516 58.24239655 12.64622498 59.34663391 C12.91564472 62.11285718 13.49255971 63.77915715 14.91796875 66.13671875 C18.84872519 65.56219129 18.84872519 65.56219129 21.91796875 63.13671875 C22.25029559 60.42637237 22.25029559 60.42637237 22.23681641 57.21826172 C22.2566861 55.97712616 22.27655579 54.7359906 22.29702759 53.45724487 C22.30890486 52.09780048 22.32056767 50.7383542 22.33203125 49.37890625 C22.35073604 47.99169757 22.37030894 46.60450035 22.39071655 45.21731567 C22.44211687 41.56446071 22.4817 37.91156881 22.51885986 34.25854492 C22.55885023 30.53164478 22.60996514 26.80489926 22.66015625 23.078125 C22.75700894 15.76442887 22.8413835 8.45065815 22.91796875 1.13671875 C26.71051579 0.09282238 30.16395653 0.00354981 34.10546875 0.01171875 C35.35714844 0.00914062 36.60882813 0.0065625 37.8984375 0.00390625 C40.91796875 0.13671875 40.91796875 0.13671875 41.91796875 1.13671875 C42.0182467 3.53481024 42.05415551 5.90411373 42.04736328 8.30273438 C42.0491156 9.05229904 42.05086792 9.80186371 42.05267334 10.57414246 C42.05709195 13.06377444 42.05415385 15.55333598 42.05078125 18.04296875 C42.05145429 19.76550307 42.05242431 21.4880373 42.05368042 23.21057129 C42.0551574 26.82544863 42.05300282 30.4403013 42.04833984 34.05517578 C42.04264255 38.69938368 42.04592155 43.34353379 42.05191231 47.98773956 C42.05551791 51.54608601 42.05437934 55.10441865 42.05178452 58.6627655 C42.05111524 60.37566637 42.05194368 62.08856847 42.05426407 63.8014679 C42.05679058 66.19124697 42.05295005 68.58093116 42.04736328 70.97070312 C42.04938751 71.68554367 42.05141174 72.40038422 42.05349731 73.1368866 C42.03223144 78.02245606 42.03223144 78.02245606 40.91796875 79.13671875 C38.5648332 79.20943616 36.20963207 79.22042743 33.85546875 79.19921875 C31.91994141 79.18568359 31.91994141 79.18568359 29.9453125 79.171875 C28.94628906 79.16027344 27.94726562 79.14867187 26.91796875 79.13671875 C26.25796875 76.82671875 25.59796875 74.51671875 24.91796875 72.13671875 C24.19609375 72.89984375 23.47421875 73.66296875 22.73046875 74.44921875 C18.27816485 78.70364247 15.14487664 80.55937366 8.91796875 80.51171875 C7.90734375 80.51945312 6.89671875 80.5271875 5.85546875 80.53515625 C1.85354599 79.99234226 -0.86297902 78.65694859 -3.41015625 75.48046875 C-8.15643378 65.98791368 -7.23252834 54.99814691 -7.21484375 44.62890625 C-7.21580048 43.38166779 -7.2167572 42.13442932 -7.21774292 40.84939575 C-7.21841913 38.23585967 -7.21660416 35.62232185 -7.21240234 33.00878906 C-7.2078943 29.65398627 -7.21003108 26.29933764 -7.21597481 22.94454765 C-7.22043856 19.73516426 -7.21732462 16.52579067 -7.21484375 13.31640625 C-7.21686798 12.10926971 -7.21889221 10.90213318 -7.22097778 9.65841675 C-7.21782562 8.55281403 -7.21467346 7.4472113 -7.21142578 6.30810547 C-7.21063019 5.33090546 -7.20983459 4.35370544 -7.20901489 3.34689331 C-6.94675118 -1.21785666 -3.86788285 0.00656686 0 0 Z " fill="#282828" transform="translate(356.08203125,157.86328125)"/>
<path d="M0 0 C6.7644593 5.55982956 8.67438207 13.38346516 9.80151367 21.77294922 C12.90503731 56.59501882 12.90503731 56.59501882 5.125 69.625 C0.4879498 74.80758551 -3.70525409 77.7014245 -10.70703125 78.3359375 C-20.17914165 78.54467029 -26.76708578 78.0447847 -33.8125 71.3125 C-43.51084053 56.62644148 -41.87989037 32.1386771 -38.69140625 15.52734375 C-36.9481429 9.15507601 -34.2397113 4.16795217 -29 0 C-20.5122257 -4.39545455 -8.35014453 -5.33799194 0 0 Z M-19 12 C-21.72393887 19.74608598 -21.31138008 28.47022439 -21.26074219 36.58007812 C-21.24997791 38.62920454 -21.26072232 40.67746175 -21.2734375 42.7265625 C-21.28149512 49.73817843 -21.04169985 56.25663922 -19 63 C-18.34 63.66 -17.68 64.32 -17 65 C-13.70285207 64.67028521 -12.3773161 64.3773161 -10 62 C-8.67392339 57.50254878 -8.82141091 52.87588426 -8.796875 48.2265625 C-8.79117493 47.3845932 -8.78547485 46.5426239 -8.77960205 45.67514038 C-8.77018112 43.89834845 -8.76362966 42.12153927 -8.75976562 40.34472656 C-8.75005732 37.64096341 -8.71900573 34.93796013 -8.6875 32.234375 C-8.68096919 30.50260865 -8.67571902 28.7708369 -8.671875 27.0390625 C-8.6595282 26.23779938 -8.6471814 25.43653625 -8.63446045 24.61099243 C-8.65513863 19.34589798 -9.50591429 15.66559491 -12 11 C-15.29839708 9.24772655 -15.79839552 9.86559701 -19 12 Z " fill="#2A2A2A" transform="translate(332,160)"/>
<path d="M0 0 C5.61 0 11.22 0 17 0 C19.81316938 7.66047662 21.54760457 15.47988495 23.21704102 23.44848633 C23.68902326 25.69474954 24.17311 27.93817667 24.65820312 30.18164062 C24.96427022 31.62484568 25.26963354 33.06820022 25.57421875 34.51171875 C25.71792404 35.17435226 25.86162933 35.83698578 26.00968933 36.5196991 C26.81337404 40.40796474 27.13961872 44.03291589 27 48 C27.66 48 28.32 48 29 48 C29.09410156 46.70835937 29.18820312 45.41671875 29.28515625 44.0859375 C30.00159965 36.94164949 31.49239828 29.96000241 32.95629883 22.93896484 C33.44048973 20.61062321 33.91306487 18.28011913 34.38476562 15.94921875 C34.69201844 14.458191 34.99993719 12.96730029 35.30859375 11.4765625 C35.44825058 10.78486969 35.58790741 10.09317688 35.73179626 9.38052368 C36.47365555 5.86490657 37.36992587 3.26014827 39 0 C44.94 0 50.88 0 57 0 C56.32308459 4.7384079 55.61558165 8.79802054 54.34179688 13.33081055 C54.00474731 14.53863693 53.66769775 15.74646332 53.32043457 16.9908905 C52.95328404 18.28952188 52.58605395 19.58813076 52.21875 20.88671875 C51.84102755 22.23465374 51.46371495 23.58270365 51.08679199 24.93086243 C50.09809244 28.46326496 49.10419449 31.9941832 48.10906982 35.52478027 C46.90004994 39.81783674 45.69703379 44.11257857 44.49326324 48.40710926 C43.55693415 51.74716671 42.61968287 55.08695575 41.67956543 58.4259491 C41.34251587 59.624319 41.00546631 60.8226889 40.65820312 62.05737305 C40.36143677 63.11103561 40.06467041 64.16469818 39.75891113 65.25028992 C38.36983274 70.28324135 37.80094114 74.81627168 37.68359375 80.046875 C37.66281265 80.81807678 37.64203156 81.58927856 37.62062073 82.3838501 C37.55541428 84.83914572 37.49637516 87.29454521 37.4375 89.75 C37.39428726 91.41797935 37.3506721 93.08594832 37.30664062 94.75390625 C37.19900774 98.83583273 37.09972008 102.91784188 37 107 C31.06 107 25.12 107 19 107 C19.11794922 104.02806641 19.11794922 104.02806641 19.23828125 100.99609375 C19.80373325 76.1660514 13.8988751 54.24782009 6.70166016 30.64599609 C4.89970222 24.70700019 3.18030891 18.74730078 1.51171875 12.76953125 C1.10938774 11.36461678 1.10938774 11.36461678 0.69892883 9.93132019 C0.46014511 9.06557877 0.22136139 8.19983734 -0.0246582 7.30786133 C-0.23790237 6.54629227 -0.45114655 5.78472321 -0.67085266 5.00007629 C-1 3 -1 3 0 0 Z " fill="#282828" transform="translate(241,130)"/>
<path d="M0 0 C5.30137263 4.73045558 7.03497512 10.17146139 8 17 C8.0777124 19.16291168 8.10796236 21.32790473 8.09765625 23.4921875 C8.09515869 24.5735498 8.09266113 25.65491211 8.09008789 26.76904297 C8.08098389 28.12400879 8.07187988 29.47897461 8.0625 30.875 C8.041875 35.20625 8.02125 39.5375 8 44 C-1.24 44.33 -10.48 44.66 -20 45 C-20.00938784 53.58663383 -20.00938784 53.58663383 -19 62 C-17.17084359 64.23845015 -17.17084359 64.23845015 -14.5 64.3125 C-13.675 64.209375 -12.85 64.10625 -12 64 C-10.05662363 61.08493545 -9.72325333 60.17028308 -9.4375 56.875 C-9 53 -9 53 -8 52 C-6.25234548 51.90030159 -4.5004897 51.87031955 -2.75 51.875 C-1.79609375 51.87242187 -0.8421875 51.86984375 0.140625 51.8671875 C2.86463928 51.99371275 5.34675009 52.38994619 8 53 C8.47507742 60.48246935 7.68492416 66.74577576 2.609375 72.60546875 C-3.66379155 78.23481031 -10.55740187 78.3898437 -18.58203125 78.24609375 C-24.56742629 77.81514531 -28.31913723 76.56880525 -32.8125 72.375 C-38.04908797 65.30472466 -39.14981545 56.02909495 -39.203125 47.49609375 C-39.20882507 46.77696304 -39.21452515 46.05783234 -39.22039795 45.31690979 C-39.22981618 43.79649306 -39.23636926 42.27605622 -39.24023438 40.75561523 C-39.2498679 38.46885788 -39.28088993 36.18302847 -39.3125 33.89648438 C-39.39006821 23.15803541 -39.31225804 11.60265652 -32 3 C-23.55419627 -5.00128775 -10.00314387 -5.35882708 0 0 Z M-18.6875 11 C-22.39727929 16.65299701 -21.10747446 25.50376587 -21 32 C-17.24598656 32.80443145 -13.85012111 33.17500551 -10 33 C-8.24331507 31.24331507 -8.82740317 28.81902718 -8.8125 26.4375 C-8.78364836 17.48819149 -8.78364836 17.48819149 -13 10 C-16.75339637 9.66013174 -16.75339637 9.66013174 -18.6875 11 Z " fill="#282828" transform="translate(591,160)"/>
<path d="M0 0 C0.9215538 0.00222061 1.8431076 0.00444122 2.79258728 0.00672913 C3.83359085 0.00680466 4.87459442 0.00688019 5.94714355 0.00695801 C7.07941879 0.01211929 8.21169403 0.01728058 9.37828064 0.02259827 C10.53106003 0.02401321 11.68383942 0.02542816 12.87155151 0.02688599 C16.57043503 0.03250446 20.26925903 0.0450601 23.96812439 0.05775452 C26.46877456 0.06276714 28.96942567 0.06733045 31.47007751 0.07142639 C37.6152829 0.0824799 43.76044354 0.09975692 49.90562439 0.12025452 C49.90562439 5.07025452 49.90562439 10.02025452 49.90562439 15.12025452 C46.0699461 16.07917409 43.08281298 16.2220264 39.15562439 16.18275452 C37.98515564 16.17373108 36.81468689 16.16470764 35.60874939 16.15541077 C34.71671814 16.1438092 33.82468689 16.13220764 32.90562439 16.12025452 C32.907845 17.24556076 32.91006561 18.370867 32.91235352 19.53027344 C32.93258383 30.11086891 32.94759599 40.69146049 32.95743656 51.27207088 C32.96266567 56.71227763 32.96976382 62.15246883 32.98106384 67.59266663 C32.99189174 72.83811154 32.99790101 78.08354144 33.00050163 83.32899666 C33.00235606 85.33496398 33.005977 87.34093043 33.01135445 89.3468914 C33.01856358 92.14628276 33.01961539 94.9456113 33.01914978 97.74501038 C33.02274506 98.58298157 33.02634033 99.42095276 33.03004456 100.28431702 C33.01967655 106.00620236 33.01967655 106.00620236 31.90562439 107.12025452 C29.06227391 107.22012426 26.24865276 107.25903333 23.40562439 107.24525452 C22.20872986 107.2510553 22.20872986 107.2510553 20.98765564 107.25697327 C15.03223206 107.24686219 15.03223206 107.24686219 13.90562439 106.12025452 C13.81043071 103.32035732 13.78008495 100.54519278 13.792099 97.74501038 C13.79195297 96.867043 13.79180695 95.98907562 13.79165649 95.08450317 C13.79235595 92.16801017 13.80014984 89.25158018 13.80796814 86.33509827 C13.8098322 84.3187056 13.81125616 82.30231247 13.81225586 80.28591919 C13.81608195 74.96760314 13.825913 69.64931421 13.83695984 64.33100891 C13.84717201 58.90854764 13.85175306 53.486082 13.85679626 48.06361389 C13.86753519 37.41581549 13.8846127 26.76803725 13.90562439 16.12025452 C12.76222595 16.13185608 11.61882751 16.14345764 10.44078064 16.15541077 C8.94989685 16.16478739 7.4590113 16.17388773 5.96812439 16.18275452 C5.2133783 16.19113342 4.4586322 16.19951233 3.68101501 16.20814514 C1.75568126 16.21677893 -0.16973142 16.17249784 -2.09437561 16.12025452 C-3.09437561 15.12025452 -3.09437561 15.12025452 -3.22718811 11.99525452 C-3.22460999 10.71650452 -3.22203186 9.43775452 -3.21937561 8.12025452 C-3.22195374 6.84150452 -3.22453186 5.56275452 -3.22718811 4.24525452 C-3.05421787 0.17536658 -3.05421787 0.17536658 0 0 Z " fill="#272727" transform="translate(395.09437561035156,129.87974548339844)"/>
<path d="M0 0 C1.04830238 0.00017939 1.04830238 0.00017939 2.11778259 0.0003624 C35.4547548 0.00759195 35.4547548 0.00759195 51.6875 1 C52.87674072 1.07001221 54.06598145 1.14002441 55.29125977 1.2121582 C64.23560272 1.87851607 74.56264089 2.95216267 81.4375 9.1875 C86.50407797 15.73132118 88.56666827 22.04574788 89.4375 30.1875 C89.51900299 30.88406708 89.60050598 31.58063416 89.68447876 32.29830933 C90.36858148 38.48445765 90.57040369 44.56880066 90.53515625 50.7890625 C90.53303383 52.23277725 90.53303383 52.23277725 90.53086853 53.70565796 C90.52532807 56.74130532 90.51278716 59.77687541 90.5 62.8125 C90.49497729 64.88671768 90.49041574 66.96093652 90.48632812 69.03515625 C90.47537824 74.08596669 90.45815564 79.1367203 90.4375 84.1875 C90.1075 84.1875 89.7775 84.1875 89.4375 84.1875 C89.41562622 82.51917114 89.41562622 82.51917114 89.39331055 80.81713867 C89.33424075 76.59159078 89.25704351 72.36651732 89.17504883 68.14135742 C89.14229982 66.33121584 89.11412231 64.52098433 89.09106445 62.71069336 C88.87532955 46.20008773 87.45155174 30.01198955 82.4375 14.1875 C81.1175 14.1875 79.7975 14.1875 78.4375 14.1875 C78.4375 13.5275 78.4375 12.8675 78.4375 12.1875 C76.4575 11.6925 76.4575 11.6925 74.4375 11.1875 C74.4375 10.1975 74.4375 9.2075 74.4375 8.1875 C73.44169922 8.09662109 73.44169922 8.09662109 72.42578125 8.00390625 C71.54277344 7.92011719 70.65976563 7.83632812 69.75 7.75 C68.87988281 7.66878906 68.00976562 7.58757812 67.11328125 7.50390625 C64.4375 7.1875 64.4375 7.1875 62.05078125 6.65234375 C58.76449387 6.0677874 55.64780995 6.1308493 52.3125 6.1875 C45.76949195 6.29816398 45.76949195 6.29816398 42.4375 5.1875 C40.00990837 5.09173897 37.61135203 5.05102077 35.18383789 5.05810547 C34.44855362 5.05635315 33.71326935 5.05460083 32.95570374 5.05279541 C30.5238306 5.04839237 28.09203014 5.05130976 25.66015625 5.0546875 C23.97008755 5.05401394 22.28001893 5.05304348 20.58995056 5.05178833 C17.04669269 5.0503134 13.50346002 5.05245911 9.96020508 5.05712891 C5.41948213 5.06282171 0.87881834 5.05954874 -3.66190243 5.05355644 C-7.1525975 5.04994162 -10.64327858 5.05109374 -14.13397408 5.05368423 C-15.80811126 5.05435118 -17.48224972 5.0535332 -19.15638542 5.05120468 C-21.49743895 5.04866356 -23.83839694 5.05253958 -26.17944336 5.05810547 C-26.87100525 5.05608124 -27.56256714 5.05405701 -28.27508545 5.05197144 C-31.53614561 5.06632526 -34.43200215 5.2710077 -37.5625 6.1875 C-39.29111802 6.23105573 -41.02129402 6.2274124 -42.75 6.1875 C-46.95491446 6.14856561 -50.98146852 6.36809599 -55.1484375 6.8984375 C-59.93853634 7.47200921 -64.75397021 7.80509577 -69.5625 8.1875 C-69.8925 9.5075 -70.2225 10.8275 -70.5625 12.1875 C-71.2225 12.1875 -71.8825 12.1875 -72.5625 12.1875 C-72.5625 12.8475 -72.5625 13.5075 -72.5625 14.1875 C-76.02403846 17.1875 -76.02403846 17.1875 -78.5625 17.1875 C-78.2325 19.1675 -77.9025 21.1475 -77.5625 23.1875 C-77.8925 23.1875 -78.2225 23.1875 -78.5625 23.1875 C-78.69527344 23.87457031 -78.82804687 24.56164062 -78.96484375 25.26953125 C-79.14144531 26.17058594 -79.31804687 27.07164062 -79.5 28 C-79.67402344 28.89332031 -79.84804687 29.78664062 -80.02734375 30.70703125 C-80.5625 33.1875 -80.5625 33.1875 -81.5625 36.1875 C-82.95694256 46.04020364 -83.74904669 55.85990259 -83.75 65.8125 C-83.7507251 66.63556641 -83.7514502 67.45863281 -83.75219727 68.30664062 C-84.06700014 72.052343 -84.06700014 72.052343 -82.5625 75.1875 C-82.37439355 78.0031251 -82.23460234 80.80617345 -82.125 83.625 C-81.8475899 89.69806431 -81.37631592 95.50313524 -79.96484375 101.4375 C-79.5625 103.1875 -79.5625 103.1875 -79.5625 105.1875 C-78.9025 105.5175 -78.2425 105.8475 -77.5625 106.1875 C-77.43875 106.950625 -77.315 107.71375 -77.1875 108.5 C-76.40640293 111.85871739 -75.19155937 113.00913652 -72.5625 115.1875 C-63.89750916 120.30772186 -51.85786212 120.52479722 -42.02270508 120.89672852 C-36.73702102 121.10023949 -36.73702102 121.10023949 -34.5625 122.1875 C-32.34183934 122.28991166 -30.11802999 122.32594915 -27.89501953 122.33276367 C-27.20818588 122.33612228 -26.52135223 122.3394809 -25.81370544 122.34294128 C-23.52422294 122.35249267 -21.23481376 122.35439906 -18.9453125 122.35546875 C-17.33372977 122.35868765 -15.72214732 122.36205219 -14.11056519 122.36555481 C-10.70911996 122.3715628 -7.30770016 122.37339392 -3.90625 122.37280273 C-0.47357782 122.37272265 2.95895758 122.37946623 6.39160156 122.39331055 C23.09494817 122.4595377 39.77132359 122.46390094 56.4453125 121.36328125 C58.13453323 121.2592524 58.13453323 121.2592524 59.85787964 121.15312195 C68.81094453 120.46526294 74.10889243 118.86769688 80.4375 112.1875 C81.4275 111.8575 82.4175 111.5275 83.4375 111.1875 C86.95865832 103.26880617 87.45960963 93.71240314 88.4375 85.1875 C88.7675 85.1875 89.0975 85.1875 89.4375 85.1875 C90.01568547 96.06595264 88.90530735 107.66984175 81.4375 116.1875 C72.86130751 124.69686501 57.22796642 124.31571082 45.921875 124.7578125 C44.89942688 124.79873016 43.87697876 124.83964783 42.82354736 124.88180542 C29.72868385 125.3513583 16.62868876 125.33867759 3.52734375 125.31787109 C-0.09827777 125.31215277 -3.72382625 125.31558292 -7.34944534 125.32130432 C-32.79748224 125.3555427 -32.79748224 125.3555427 -45.0625 124.7578125 C-46.1950119 124.70284103 -46.1950119 124.70284103 -47.35040283 124.64675903 C-70.3150152 123.32489642 -70.3150152 123.32489642 -77.5625 116.1875 C-82.69998223 109.6428521 -84.85054058 103.00933942 -85.66796875 94.77734375 C-85.75185349 93.94895493 -85.83573822 93.1205661 -85.92216492 92.26707458 C-86.77631949 83.06074605 -86.89938732 73.86714796 -86.87817383 64.62670898 C-86.87500586 61.75531229 -86.89862651 58.88494316 -86.92382812 56.01367188 C-86.95797233 46.69329941 -86.61425591 37.51988543 -85.35546875 28.27734375 C-85.25575272 27.47752579 -85.15603668 26.67770782 -85.05329895 25.85365295 C-83.83041209 17.97004666 -79.83639656 11.17809954 -73.5625 6.1875 C-65.79276021 2.12604511 -56.1488098 1.88186247 -47.5625 1.1875 C-46.48105713 1.09847412 -45.39961426 1.00944824 -44.28540039 0.91772461 C-29.5428272 -0.12158361 -14.77142831 -0.01115001 0 0 Z " fill="#E80A09" transform="translate(133.5625,120.8125)"/>
<path d="M0 0 C0.99 0.33 1.98 0.66 3 1 C1.9275 1.66 0.855 2.32 -0.25 3 C-9.33820704 11.0049662 -8.70004103 28.00478357 -9.48681641 39.17456055 C-10.0738828 48.76167704 -10.48283041 58.39953479 -10 68 C-9.67 68.33 -9.34 68.66 -9 69 C-8.81189355 71.8156251 -8.67210234 74.61867345 -8.5625 77.4375 C-8.2850899 83.51056431 -7.81381592 89.31563524 -6.40234375 95.25 C-6 97 -6 97 -6 99 C-5.34 99.33 -4.68 99.66 -4 100 C-3.87625 100.763125 -3.7525 101.52625 -3.625 102.3125 C-2.84390293 105.67121739 -1.62905937 106.82163652 1 109 C9.66499084 114.12022186 21.70463788 114.33729722 31.53979492 114.70922852 C36.82547898 114.91273949 36.82547898 114.91273949 39 116 C41.22066066 116.10241166 43.44447001 116.13844915 45.66748047 116.14526367 C46.35431412 116.14862228 47.04114777 116.1519809 47.74879456 116.15544128 C50.03827706 116.16499267 52.32768624 116.16689906 54.6171875 116.16796875 C56.22877023 116.17118765 57.84035268 116.17455219 59.45193481 116.17805481 C62.85338004 116.1840628 66.25479984 116.18589392 69.65625 116.18530273 C73.08892218 116.18522265 76.52145758 116.19196623 79.95410156 116.20581055 C96.65744817 116.2720377 113.33382359 116.27640094 130.0078125 115.17578125 C131.69703323 115.0717524 131.69703323 115.0717524 133.42037964 114.96562195 C142.37344453 114.27776294 147.67139243 112.68019688 154 106 C154.99 105.67 155.98 105.34 157 105 C160.52115832 97.08130617 161.02210963 87.52490314 162 79 C162.33 79 162.66 79 163 79 C163.57818547 89.87845264 162.46780735 101.48234175 155 110 C146.42380751 118.50936501 130.79046642 118.12821082 119.484375 118.5703125 C118.46192688 118.61123016 117.43947876 118.65214783 116.38604736 118.69430542 C103.29118385 119.1638583 90.19118876 119.15117759 77.08984375 119.13037109 C73.46422223 119.12465277 69.83867375 119.12808292 66.21305466 119.13380432 C40.76501776 119.1680427 40.76501776 119.1680427 28.5 118.5703125 C27.3674881 118.51534103 27.3674881 118.51534103 26.21209717 118.45925903 C3.2474848 117.13739642 3.2474848 117.13739642 -4 110 C-9.13748223 103.4553521 -11.28804058 96.82183942 -12.10546875 88.58984375 C-12.18935349 87.76145493 -12.27323822 86.9330661 -12.35966492 86.07957458 C-13.21381949 76.87324605 -13.33688732 67.67964796 -13.31567383 58.43920898 C-13.31250586 55.56781229 -13.33612651 52.69744316 -13.36132812 49.82617188 C-13.39547233 40.50579941 -13.05175591 31.33238543 -11.79296875 22.08984375 C-11.69325272 21.29002579 -11.59353668 20.49020782 -11.49079895 19.66615295 C-10.21288972 11.427833 -6.06491997 5.54506969 0 0 Z " fill="#CF2426" transform="translate(60,127)"/>
<path d="M0 0 C0.9215538 0.00222061 1.8431076 0.00444122 2.79258728 0.00672913 C3.83359085 0.00680466 4.87459442 0.00688019 5.94714355 0.00695801 C7.07941879 0.01211929 8.21169403 0.01728058 9.37828064 0.02259827 C10.53106003 0.02401321 11.68383942 0.02542816 12.87155151 0.02688599 C16.57043503 0.03250446 20.26925903 0.0450601 23.96812439 0.05775452 C26.46877456 0.06276714 28.96942567 0.06733045 31.47007751 0.07142639 C37.6152829 0.0824799 43.76044354 0.09975692 49.90562439 0.12025452 C49.90562439 5.07025452 49.90562439 10.02025452 49.90562439 15.12025452 C46.0699461 16.07917409 43.08281298 16.2220264 39.15562439 16.18275452 C37.98515564 16.17373108 36.81468689 16.16470764 35.60874939 16.15541077 C34.71671814 16.1438092 33.82468689 16.13220764 32.90562439 16.12025452 C32.907845 17.24556076 32.91006561 18.370867 32.91235352 19.53027344 C32.93258383 30.11086891 32.94759599 40.69146049 32.95743656 51.27207088 C32.96266567 56.71227763 32.96976382 62.15246883 32.98106384 67.59266663 C32.99189174 72.83811154 32.99790101 78.08354144 33.00050163 83.32899666 C33.00235606 85.33496398 33.005977 87.34093043 33.01135445 89.3468914 C33.01856358 92.14628276 33.01961539 94.9456113 33.01914978 97.74501038 C33.02274506 98.58298157 33.02634033 99.42095276 33.03004456 100.28431702 C33.01967655 106.00620236 33.01967655 106.00620236 31.90562439 107.12025452 C29.06227391 107.22012426 26.24865276 107.25903333 23.40562439 107.24525452 C22.20872986 107.2510553 22.20872986 107.2510553 20.98765564 107.25697327 C15.03223206 107.24686219 15.03223206 107.24686219 13.90562439 106.12025452 C13.81043071 103.32035732 13.78008495 100.54519278 13.792099 97.74501038 C13.79195297 96.867043 13.79180695 95.98907562 13.79165649 95.08450317 C13.79235595 92.16801017 13.80014984 89.25158018 13.80796814 86.33509827 C13.8098322 84.3187056 13.81125616 82.30231247 13.81225586 80.28591919 C13.81608195 74.96760314 13.825913 69.64931421 13.83695984 64.33100891 C13.84717201 58.90854764 13.85175306 53.486082 13.85679626 48.06361389 C13.86753519 37.41581549 13.8846127 26.76803725 13.90562439 16.12025452 C11.26562439 16.12025452 8.62562439 16.12025452 5.90562439 16.12025452 C5.90562439 15.46025452 5.90562439 14.80025452 5.90562439 14.12025452 C7.38469331 14.09336235 8.86389922 14.0739083 10.34312439 14.05775452 C11.16683533 14.04615295 11.99054626 14.03455139 12.83921814 14.02259827 C14.90562439 14.12025452 14.90562439 14.12025452 15.90562439 15.12025452 C16.00083345 17.95066124 16.0311607 20.75660444 16.01914978 23.58729553 C16.01929581 24.47501648 16.01944183 25.36273743 16.01959229 26.27735901 C16.01889282 29.22631736 16.01109887 32.17521338 16.00328064 35.12416077 C16.00141658 37.16297369 15.99999262 39.20178706 15.99899292 41.24060059 C15.9951668 46.61810025 15.98533571 51.9955731 15.97428894 57.37306213 C15.96407684 62.85584653 15.95949573 68.33863524 15.95445251 73.82142639 C15.94371353 84.58771425 15.92663598 95.35398216 15.90562439 106.12025452 C20.85562439 106.12025452 25.80562439 106.12025452 30.90562439 106.12025452 C30.90340378 104.9824202 30.90118317 103.84458588 30.89889526 102.67227173 C30.87866506 91.97394702 30.86365284 81.27562618 30.85381222 70.57728672 C30.84858308 65.0765459 30.84148488 59.57582046 30.83018494 54.0750885 C30.81935714 48.77128891 30.81334779 43.46750416 30.81074715 38.16369438 C30.8088927 36.13539839 30.80527172 34.10710326 30.79989433 32.07881355 C30.79268533 29.24828938 30.79163339 26.41782733 30.792099 23.58729553 C30.78850372 22.7399736 30.78490845 21.89265167 30.78120422 21.01965332 C30.79157223 15.23430668 30.79157223 15.23430668 31.90562439 14.12025452 C34.76830006 14.04700284 37.60634338 14.02787247 40.46812439 14.05775452 C41.27443298 14.06226624 42.08074158 14.06677795 42.91148376 14.07142639 C44.90956195 14.08324934 46.90760222 14.10118538 48.90562439 14.12025452 C48.90562439 9.83025452 48.90562439 5.54025452 48.90562439 1.12025452 C32.40562439 1.12025452 15.90562439 1.12025452 -1.09437561 1.12025452 C-1.09437561 5.41025452 -1.09437561 9.70025452 -1.09437561 14.12025452 C0.88562439 14.12025452 2.86562439 14.12025452 4.90562439 14.12025452 C2.90562439 16.12025452 2.90562439 16.12025452 0.34312439 16.30775452 C-2.09437561 16.12025452 -2.09437561 16.12025452 -3.09437561 15.12025452 C-3.19346863 12.78865397 -3.22408065 10.4539551 -3.21937561 8.12025452 C-3.22195374 6.84150452 -3.22453186 5.56275452 -3.22718811 4.24525452 C-3.05421787 0.17536658 -3.05421787 0.17536658 0 0 Z " fill="#403F40" transform="translate(395.09437561035156,129.87974548339844)"/>
<path d="M0 0 C0.79792969 0.00386719 1.59585937 0.00773438 2.41796875 0.01171875 C3.21589844 0.00785156 4.01382812 0.00398437 4.8359375 0 C10.79136108 0.01011108 10.79136108 0.01011108 11.91796875 1.13671875 C12.03097728 3.01743466 12.07479461 4.9023434 12.09155273 6.78637695 C12.10504257 7.99465652 12.11853241 9.2029361 12.13243103 10.4478302 C12.14286942 11.76442123 12.1533078 13.08101227 12.1640625 14.4375 C12.17955762 15.79413156 12.19576666 17.15075514 12.21266174 18.50737 C12.28351545 24.28077875 12.34348448 30.05426592 12.39477539 35.82788086 C12.42660408 39.35639732 12.46789439 42.88470153 12.51497078 46.41304588 C12.53875365 48.41154667 12.55172796 50.4101666 12.56455994 52.4087677 C12.58120193 53.62650375 12.59784393 54.84423981 12.61499023 56.09887695 C12.6252977 57.17063675 12.63560516 58.24239655 12.64622498 59.34663391 C12.91564472 62.11285718 13.49255971 63.77915715 14.91796875 66.13671875 C18.84872519 65.56219129 18.84872519 65.56219129 21.91796875 63.13671875 C22.25029559 60.42637237 22.25029559 60.42637237 22.23681641 57.21826172 C22.2566861 55.97712616 22.27655579 54.7359906 22.29702759 53.45724487 C22.30890486 52.09780048 22.32056767 50.7383542 22.33203125 49.37890625 C22.35073604 47.99169757 22.37030894 46.60450035 22.39071655 45.21731567 C22.44211687 41.56446071 22.4817 37.91156881 22.51885986 34.25854492 C22.55885023 30.53164478 22.60996514 26.80489926 22.66015625 23.078125 C22.75700894 15.76442887 22.8413835 8.45065815 22.91796875 1.13671875 C26.71051579 0.09282238 30.16395653 0.00354981 34.10546875 0.01171875 C35.35714844 0.00914062 36.60882813 0.0065625 37.8984375 0.00390625 C40.91796875 0.13671875 40.91796875 0.13671875 41.91796875 1.13671875 C42.01293583 3.54020161 42.04355737 5.91482857 42.03149414 8.31860352 C42.03164017 9.06977448 42.03178619 9.82094543 42.03193665 10.59487915 C42.03123738 13.08932334 42.02344439 15.58369378 42.015625 18.078125 C42.01376087 19.80305439 42.01233694 21.52798432 42.01133728 23.25291443 C42.00751172 27.80184378 41.99768113 32.35074142 41.9866333 36.8996582 C41.97641999 41.53791881 41.97183983 46.17618452 41.96679688 50.81445312 C41.95605889 59.92188897 41.93898202 69.02930123 41.91796875 78.13671875 C39.57814143 74.45893162 39.70769236 71.36452828 39.78271484 67.07324219 C39.79217636 66.370401 39.80163788 65.66755981 39.81138611 64.94342041 C39.84498196 62.62737548 39.89311865 60.31187505 39.94140625 57.99609375 C39.96758187 56.38756724 39.9928482 54.7790257 40.01724243 53.17047119 C40.08381032 48.94198547 40.16272094 44.71381685 40.24420166 40.4855957 C40.32520295 36.16890612 40.39453248 31.85203084 40.46484375 27.53515625 C40.60446128 19.06877753 40.75819673 10.60274114 40.91796875 2.13671875 C35.30796875 2.13671875 29.69796875 2.13671875 23.91796875 2.13671875 C23.96920898 3.96364258 24.02044922 5.79056641 24.07324219 7.67285156 C24.23781372 13.7114691 24.38351526 19.75031169 24.51636887 25.78970718 C24.59760336 29.45116731 24.68638571 33.1121184 24.79248047 36.77294922 C24.89460524 40.3064144 24.97682062 43.83983555 25.04529572 47.37410736 C25.08929723 49.37746135 25.15386496 51.38032932 25.21868896 53.38311768 C25.24917328 55.21456329 25.24917328 55.21456329 25.28027344 57.08300781 C25.30692078 58.15778381 25.33356812 59.23255981 25.36102295 60.33990479 C24.802589 63.86506235 23.69822525 64.96940278 20.91796875 67.13671875 C17.66796875 68.38671875 17.66796875 68.38671875 14.91796875 69.13671875 C12.21511455 66.92936969 11.02280985 65.76285197 10.43695068 62.26397705 C10.44583313 61.15367126 10.45471558 60.04336548 10.46386719 58.89941406 C10.46432037 57.00790619 10.46432037 57.00790619 10.46478271 55.07818604 C10.4852077 53.70706549 10.50607166 52.33595142 10.52734375 50.96484375 C10.53480758 49.55809331 10.54049985 48.15133244 10.54449463 46.74456787 C10.55974015 43.04863593 10.59901144 39.35333648 10.64331055 35.65765381 C10.68428732 31.8838354 10.70251071 28.10991443 10.72265625 24.3359375 C10.76550796 16.93587669 10.83584759 9.53646705 10.91796875 2.13671875 C5.63796875 2.13671875 0.35796875 2.13671875 -5.08203125 2.13671875 C-5.08203125 20.94671875 -5.08203125 39.75671875 -5.08203125 59.13671875 C-5.74203125 58.80671875 -6.40203125 58.47671875 -7.08203125 58.13671875 C-7.10516008 50.72211933 -7.1229491 43.30752764 -7.13384342 35.89289951 C-7.13907107 32.45031527 -7.14616656 29.00775563 -7.1574707 25.56518555 C-7.1703736 21.61116832 -7.17526043 17.65716119 -7.1796875 13.703125 C-7.18484879 12.46148087 -7.19001007 11.21983673 -7.19532776 9.94056702 C-7.19540329 8.79945969 -7.19547882 7.65835236 -7.19555664 6.48266602 C-7.19777725 5.47228775 -7.19999786 4.46190948 -7.20228577 3.4209137 C-6.95827051 -1.21407579 -3.94846933 0.00670368 0 0 Z " fill="#3C3B3B" transform="translate(356.08203125,157.86328125)"/>
<path d="M0 0 C4.24126348 0.8482527 5.79221774 1.25200569 9.125 3.5 C11.50661056 5.09391835 13.24500014 6.08166671 16 7 C16 7.66 16 8.32 16 9 C16.66386719 9.10957031 17.32773438 9.21914062 18.01171875 9.33203125 C22.97426637 10.22311644 26.78487248 11.10962684 31 14 C32.65369357 14.69822617 34.31727014 15.37498605 36 16 C36 16.66 36 17.32 36 18 C36.5775 18.12375 37.155 18.2475 37.75 18.375 C41.03070569 19.28630714 43.31193719 19.96790579 45.25 22.875 C46 25 46 25 46 29 C43.23776722 31.76223278 40.79293383 31.57856291 37 32 C37 32.66 37 33.32 37 34 C34.69 34.66 32.38 35.32 30 36 C30 36.66 30 37.32 30 38 C27.35261084 39.4606285 26.10551666 40 23 40 C23 40.66 23 41.32 23 42 C22.50072998 42.26216309 22.00145996 42.52432617 21.48706055 42.79443359 C19.21964306 43.98625759 16.95356175 45.18060044 14.6875 46.375 C13.50897461 46.99375 13.50897461 46.99375 12.30664062 47.625 C11.54931641 48.02460938 10.79199219 48.42421875 10.01171875 48.8359375 C9.31522217 49.20251465 8.61872559 49.5690918 7.90112305 49.94677734 C6.21744775 50.87953389 4.60151793 51.93232138 3 53 C2.01 53 1.02 53 0 53 C0 35.51 0 18.02 0 0 Z M2 2 C2 18.17 2 34.34 2 51 C9.36434219 47.3178289 16.50475517 43.67282724 23.5625 39.5 C30.31533705 35.54690679 37.09275345 31.67869086 44 28 C42.76231969 24.28695906 41.82478743 24.05156818 38.46875 22.21484375 C37.52016113 21.68850342 36.57157227 21.16216309 35.59423828 20.61987305 C34.57313965 20.06468994 33.55204102 19.50950684 32.5 18.9375 C30.40290765 17.77737503 28.30656024 16.61590254 26.2109375 15.453125 C25.16518555 14.87498047 24.11943359 14.29683594 23.04199219 13.70117188 C17.96133756 10.85991976 12.9617955 7.88476373 7.96679688 4.89624023 C5.1600787 2.89500406 5.1600787 2.89500406 2 2 Z " fill="#BC4243" transform="translate(117,157)"/>
<path d="M0 0 C0.79792969 0.00386719 1.59585937 0.00773438 2.41796875 0.01171875 C3.21589844 0.00785156 4.01382812 0.00398437 4.8359375 0 C10.79136108 0.01011108 10.79136108 0.01011108 11.91796875 1.13671875 C12.01188171 3.03915637 12.03540533 4.94510334 12.03149414 6.84985352 C12.03141861 8.07104385 12.03134308 9.29223419 12.03126526 10.5504303 C12.02615786 11.89299561 12.02094186 13.2355605 12.015625 14.578125 C12.01376074 15.94433033 12.01233688 17.31053632 12.01133728 18.67674255 C12.00751269 22.2787357 11.99768292 25.88068875 11.9866333 29.48266602 C11.97641791 33.1557562 11.97183939 36.82885284 11.96679688 40.50195312 C11.95606059 47.71355998 11.93898489 54.92513375 11.91796875 62.13671875 C9.94452936 58.8330115 9.6737003 56.3643136 9.69091797 52.54199219 C9.69106903 51.4211322 9.69122009 50.30027222 9.69137573 49.14544678 C9.7016983 47.94116028 9.71202087 46.73687378 9.72265625 45.49609375 C9.72548615 44.25877502 9.72831604 43.0214563 9.73123169 41.74664307 C9.74052675 38.46520334 9.7584817 35.18396121 9.78063965 31.90258789 C9.80113827 28.55096253 9.81007151 25.19932868 9.8203125 21.84765625 C9.84236848 15.27725654 9.87689643 8.707026 9.91796875 2.13671875 C4.96796875 2.13671875 0.01796875 2.13671875 -5.08203125 2.13671875 C-4.75203125 25.23671875 -4.42203125 48.33671875 -4.08203125 72.13671875 C-7.29014127 67.32455372 -7.20727315 62.44367187 -7.21142578 56.7800293 C-7.21457794 55.54242355 -7.2177301 54.30481781 -7.22097778 53.02970886 C-7.21918871 51.69428471 -7.21713793 50.35886088 -7.21484375 49.0234375 C-7.21551791 47.64435306 -7.21648886 46.26526873 -7.21774292 44.88618469 C-7.21921216 42.00736348 -7.21708861 39.12857343 -7.21240234 36.24975586 C-7.2066786 32.5529342 -7.21000555 28.85618472 -7.21597481 25.15936565 C-7.21957848 22.31732127 -7.2184432 19.47529417 -7.21584702 16.63324928 C-7.21517859 15.26923425 -7.21600323 13.90521767 -7.21832657 12.54120445 C-7.22085275 10.64294844 -7.21632296 8.74468693 -7.21142578 6.84643555 C-7.21063019 5.76533005 -7.20983459 4.68422455 -7.20901489 3.57035828 C-6.96018225 -1.19851547 -4.11876425 0.00699281 0 0 Z " fill="#3C3B3C" transform="translate(445.08203125,157.86328125)"/>
<path d="M0 0 C0.79792969 0.00386719 1.59585937 0.00773438 2.41796875 0.01171875 C3.21589844 0.00785156 4.01382812 0.00398437 4.8359375 0 C10.79136108 0.01011108 10.79136108 0.01011108 11.91796875 1.13671875 C12.0182467 3.53481024 12.05415551 5.90411373 12.04736328 8.30273438 C12.0491156 9.05229904 12.05086792 9.80186371 12.05267334 10.57414246 C12.05709195 13.06377444 12.05415385 15.55333598 12.05078125 18.04296875 C12.05145429 19.76550307 12.05242431 21.4880373 12.05368042 23.21057129 C12.0551574 26.82544863 12.05300282 30.4403013 12.04833984 34.05517578 C12.04264255 38.69938368 12.04592155 43.34353379 12.05191231 47.98773956 C12.05551791 51.54608601 12.05437934 55.10441865 12.05178452 58.6627655 C12.05111524 60.37566637 12.05194368 62.08856847 12.05426407 63.8014679 C12.05679058 66.19124697 12.05295005 68.58093116 12.04736328 70.97070312 C12.04938751 71.68554367 12.05141174 72.40038422 12.05349731 73.1368866 C12.03223144 78.02245606 12.03223144 78.02245606 10.91796875 79.13671875 C8.73157422 79.20930821 6.54296486 79.22045658 4.35546875 79.19921875 C2.55916016 79.18568359 2.55916016 79.18568359 0.7265625 79.171875 C-0.66369141 79.15447266 -0.66369141 79.15447266 -2.08203125 79.13671875 C-2.08203125 78.80671875 -2.08203125 78.47671875 -2.08203125 78.13671875 C1.87796875 78.13671875 5.83796875 78.13671875 9.91796875 78.13671875 C9.91796875 53.05671875 9.91796875 27.97671875 9.91796875 2.13671875 C4.63796875 2.13671875 -0.64203125 2.13671875 -6.08203125 2.13671875 C-5.75203125 21.93671875 -5.42203125 41.73671875 -5.08203125 62.13671875 C-6.07203125 62.63171875 -6.07203125 62.63171875 -7.08203125 63.13671875 C-7.10515862 55.07019701 -7.12294834 47.00368903 -7.13384342 38.93714237 C-7.13907139 35.19188838 -7.14616747 31.44665699 -7.1574707 27.70141602 C-7.16830266 24.08990188 -7.17430874 20.47840954 -7.17690849 16.86688042 C-7.17876219 15.48611546 -7.18238174 14.10535175 -7.18776131 12.72459602 C-7.19497572 10.79695923 -7.19543934 8.86930068 -7.19555664 6.94165039 C-7.19777725 5.84244766 -7.19999786 4.74324493 -7.20228577 3.61073303 C-6.96859039 -1.1971171 -4.16102738 0.00706456 0 0 Z " fill="#3B393A" transform="translate(475.08203125,157.86328125)"/>
<path d="M0 0 C2.76145462 0.01093792 5.52286163 0.01042475 8.28433418 0.00998116 C21.79380863 0.01056682 35.2698875 0.01553627 48.73693848 1.19561768 C48.73693848 1.85561768 48.73693848 2.51561768 48.73693848 3.19561768 C47.82335068 3.19117645 46.90976288 3.18673523 45.9684906 3.18215942 C37.24899343 3.14165222 28.52952902 3.11141868 19.80995846 3.09199333 C15.32992899 3.08167008 10.84997891 3.06772791 6.36999512 3.04473877 C-12.13113947 2.95227959 -30.45325122 2.89287391 -48.86619568 4.95944214 C-55.97236931 5.65965003 -63.13114751 5.87938345 -70.26306152 6.19561768 C-64.88990039 0.82245654 -53.39936075 1.55409253 -46.22009277 1.08233643 C-44.95961624 0.99803879 -43.69913971 0.91374115 -42.40046692 0.82688904 C-28.27036311 -0.03811741 -14.15123255 -0.07078583 0 0 Z " fill="#CD353A" transform="translate(133.2630615234375,120.80438232421875)"/>
<path d="M0 0 C1 3 1 3 0.5625 5.25 C-3.02905094 11.57112966 -9.10590119 15.86288698 -16 18 C-19.98193496 18.66122589 -23.96562533 18.92780972 -27.9921875 19.17578125 C-29.20091522 19.25556717 -30.40964294 19.33535309 -31.65499878 19.41755676 C-47.94612438 20.37619207 -64.26041182 20.26140927 -80.57318115 20.19561768 C-84.03216894 20.18461417 -87.49111863 20.18515454 -90.95012093 20.18575573 C-94.29571654 20.18548502 -97.64128651 20.18002561 -100.98687363 20.17275429 C-102.57613813 20.16957996 -104.1654055 20.16760311 -105.754673 20.16686058 C-107.94734036 20.16470408 -110.13987956 20.15598567 -112.33251953 20.14526367 C-114.19772751 20.13954597 -114.19772751 20.13954597 -116.10061646 20.13371277 C-119 20 -119 20 -121 19 C-123.87910588 18.76725791 -126.74146495 18.58027243 -129.625 18.4375 C-130.42679687 18.39431641 -131.22859375 18.35113281 -132.0546875 18.30664062 C-134.0362511 18.20048543 -136.01810271 18.09973145 -138 18 C-138 17.67 -138 17.34 -138 17 C-130.41 16.67 -122.82 16.34 -115 16 C-115 16.66 -115 17.32 -115 18 C-107.09798872 18.02533211 -99.1959879 18.04285934 -91.29394531 18.05493164 C-88.60513148 18.05939946 -85.91634118 18.06636119 -83.22753906 18.07543945 C-79.3652275 18.08755371 -75.50295208 18.09323945 -71.640625 18.09765625 C-70.4363385 18.10281754 -69.232052 18.10797882 -67.99127197 18.11329651 C-66.87041199 18.11337204 -65.749552 18.11344757 -64.59472656 18.11352539 C-63.60877502 18.115746 -62.62282349 18.11796661 -61.60699463 18.12025452 C-59.24002549 18.01107181 -57.27812499 17.59312211 -55 17 C-54.34644531 17.16371094 -53.69289063 17.32742187 -53.01953125 17.49609375 C-50.54497992 18.11353499 -49.14184261 17.71105686 -46.6875 17.0625 C-41.07223591 15.82747124 -35.70440245 15.91630761 -29.9765625 15.98046875 C-25.86996559 16.00063868 -21.78911972 15.93759076 -17.6875 15.75 C-16.45386719 15.70359375 -15.22023438 15.6571875 -13.94921875 15.609375 C-12.97597656 15.40828125 -12.00273437 15.2071875 -11 15 C-9.65242804 13.06169448 -9.65242804 13.06169448 -9 11 C-8.34 10.855625 -7.68 10.71125 -7 10.5625 C-6.34 10.376875 -5.68 10.19125 -5 10 C-3.86454438 7.70465742 -3.86454438 7.70465742 -3 5 C-2.02763513 3.3170608 -1.03435556 1.64556566 0 0 Z " fill="#E90809" transform="translate(218,224)"/>
<path d="M0 0 C1.12535156 0.00580078 1.12535156 0.00580078 2.2734375 0.01171875 C3.02367187 0.00785156 3.77390625 0.00398438 4.546875 0 C10.14682697 0.01010822 10.14682697 0.01010822 11.2734375 1.13671875 C11.43373438 4.09201379 11.53301078 7.02654332 11.58984375 9.984375 C11.61062485 10.87080185 11.63140594 11.7572287 11.65281677 12.67051697 C11.7184115 15.51333575 11.77724302 18.35624992 11.8359375 21.19921875 C11.8791133 23.12175481 11.92272728 25.04428109 11.96679688 26.96679688 C12.07410293 31.69000543 12.17534201 36.41331028 12.2734375 41.13671875 C11.6134375 40.80671875 10.9534375 40.47671875 10.2734375 40.13671875 C9.0330322 35.96631466 9.14380766 31.74150552 9.17578125 27.4296875 C9.1771962 26.70429276 9.17861115 25.97889801 9.18006897 25.23152161 C9.18563819 22.92904425 9.19818489 20.6266664 9.2109375 18.32421875 C9.21595648 16.75716287 9.22051869 15.19010545 9.22460938 13.62304688 C9.23474396 9.79420224 9.25432509 5.96557106 9.2734375 2.13671875 C4.3234375 2.13671875 -0.6265625 2.13671875 -5.7265625 2.13671875 C-5.7265625 36.45671875 -5.7265625 70.77671875 -5.7265625 106.13671875 C-6.0565625 106.13671875 -6.3865625 106.13671875 -6.7265625 106.13671875 C-6.749683 92.46369313 -6.76747609 78.79067211 -6.77837467 65.11763096 C-6.78360414 58.76941299 -6.79070294 52.42120835 -6.80200195 46.07299805 C-6.81282856 39.95223293 -6.81883885 33.83148066 -6.82143974 27.71070671 C-6.8232944 25.36980932 -6.82691579 23.02891266 -6.83229256 20.68802071 C-6.83949998 17.42163673 -6.84055357 14.1553066 -6.84008789 10.88891602 C-6.84368317 9.91068375 -6.84727844 8.93245148 -6.85098267 7.92457581 C-6.849608 7.03971497 -6.84823334 6.15485413 -6.84681702 5.24317932 C-6.84773881 4.46979501 -6.8486606 3.69641069 -6.84961033 2.89959049 C-6.56784123 -1.13723642 -3.30361754 0.00596321 0 0 Z " fill="#383838" transform="translate(502.7265625,125.86328125)"/>
<path d="M0 0 C2.79035429 2.2477854 3.85910005 3.57730016 5 7 C5.10002696 8.35903647 5.14818066 9.72230993 5.16113281 11.08496094 C5.17074036 11.90301208 5.1803479 12.72106323 5.19024658 13.56390381 C5.19449646 14.4451593 5.19874634 15.32641479 5.203125 16.234375 C5.20882507 17.14576233 5.21452515 18.05714966 5.22039795 18.99615479 C5.22984509 20.92613567 5.2363808 22.85613266 5.24023438 24.78613281 C5.2499173 27.72489972 5.28093395 30.66296039 5.3125 33.6015625 C5.31903266 35.47916253 5.3242821 37.35676754 5.328125 39.234375 C5.3404718 40.10753357 5.3528186 40.98069214 5.36553955 41.88031006 C5.34582848 47.33604318 4.62007023 51.17926215 2 56 C-0.88861709 57.44430855 -2.79647701 57.37688506 -6 57 C-8.91057847 54.95989241 -10.71740439 53.32814681 -11.47567749 49.7644043 C-11.67962963 46.96700436 -11.71907451 44.21107982 -11.69921875 41.40625 C-11.70637405 40.38196899 -11.71352936 39.35768799 -11.72090149 38.30236816 C-11.72867284 36.14055247 -11.7236784 33.9786582 -11.70678711 31.81689453 C-11.68756128 28.51053812 -11.72695443 25.20838455 -11.77148438 21.90234375 C-11.77177474 19.79947667 -11.76863468 17.69660573 -11.76171875 15.59375 C-11.77700119 14.60717407 -11.79228363 13.62059814 -11.80802917 12.60412598 C-11.69491823 5.93758835 -11.69491823 5.93758835 -9.70547485 3.25341797 C-6.5873199 0.54469714 -4.10330886 -0.97183631 0 0 Z M-7.13305664 3.88818359 C-9.80013753 8.33366718 -9.55637422 12.13376775 -9.49609375 17.2265625 C-9.49754898 18.21119476 -9.49900421 19.19582703 -9.50050354 20.21029663 C-9.49884695 22.28638679 -9.4873126 24.36248954 -9.46655273 26.43847656 C-9.43753674 29.62097065 -9.4459612 32.80180486 -9.45898438 35.984375 C-9.45274864 38.00261228 -9.44435899 40.0208443 -9.43359375 42.0390625 C-9.43652939 42.99221344 -9.43946503 43.94536438 -9.44248962 44.92739868 C-9.42980545 45.81196747 -9.41712128 46.69653625 -9.40405273 47.60791016 C-9.39864975 48.38558746 -9.39324677 49.16326477 -9.38768005 49.96450806 C-8.89626721 52.54464308 -8.07929469 53.43283209 -6 55 C-3 55.58333333 -3 55.58333333 0 55 C3.50783624 51.97600324 3.49611658 48.41906043 4 44 C4.18572006 39.25305763 4.18582073 34.50733727 4.18530273 29.75732422 C4.18749417 27.50599389 4.2057058 25.25515052 4.22460938 23.00390625 C4.2275433 21.55468915 4.2295281 20.10546976 4.23046875 18.65625 C4.23457764 17.35494141 4.23868652 16.05363281 4.24291992 14.71289062 C3.92826807 9.90361893 3.49980784 5.49980784 0 2 C-3.38066056 1.37724674 -4.53331323 1.58688847 -7.13305664 3.88818359 Z " fill="#3C3A3B" transform="translate(523,169)"/>
<path d="M0 0 C5.61 0 11.22 0 17 0 C19.81316938 7.66047662 21.54760457 15.47988495 23.21704102 23.44848633 C23.68902326 25.69474954 24.17311 27.93817667 24.65820312 30.18164062 C24.96427022 31.62484568 25.26963354 33.06820022 25.57421875 34.51171875 C25.71792404 35.17435226 25.86162933 35.83698578 26.00968933 36.5196991 C26.81337404 40.40796474 27.13961872 44.03291589 27 48 C27.66 48 28.32 48 29 48 C29.04898437 47.38253906 29.09796875 46.76507813 29.1484375 46.12890625 C29.66608422 40.26521841 30.61582123 34.72127225 32 29 C34 32 34 32 33.5390625 34.9609375 C33.23742187 36.08757812 32.93578125 37.21421875 32.625 38.375 C31.55797497 42.41113814 30.92706796 45.83558061 31 50 C30 52.3125 30 52.3125 29 54 C28.34 54 27.68 54 27 54 C22.61257962 36.40950528 22.61257962 36.40950528 22.2734375 28.6875 C22.18320312 28.130625 22.09296875 27.57375 22 27 C21.34 26.67 20.68 26.34 20 26 C19.65625 24.25 19.65625 24.25 19.5 22 C19.14604632 17.95205699 18.41654918 14.16925267 17.40234375 10.23828125 C17 8 17 8 17 2 C12.05 2 7.1 2 2 2 C1.67 3.32 1.34 4.64 1 6 C0.34 5.01 -0.32 4.02 -1 3 C-0.67 2.01 -0.34 1.02 0 0 Z " fill="#383838" transform="translate(241,130)"/>
<path d="M0 0 C6.73833199 0.1715779 11.93746928 1.36378766 17 6 C22.19995149 12.39905338 24.13582743 18.92050703 25 27 C25.08150299 27.69656708 25.16300598 28.39313416 25.24697876 29.11080933 C25.93108148 35.29695765 26.13290369 41.38130066 26.09765625 47.6015625 C26.0962413 48.564039 26.09482635 49.5265155 26.09336853 50.51815796 C26.08782807 53.55380532 26.07528716 56.58937541 26.0625 59.625 C26.05747729 61.69921768 26.05291574 63.77343652 26.04882812 65.84765625 C26.03787824 70.89846669 26.02065564 75.9492203 26 81 C25.67 81 25.34 81 25 81 C24.97812622 79.33167114 24.97812622 79.33167114 24.95581055 77.62963867 C24.89674075 73.40409078 24.81954351 69.17901732 24.73754883 64.95385742 C24.70479982 63.14371584 24.67662231 61.33348433 24.65356445 59.52319336 C24.52701072 49.83779371 24.13163804 40.32119051 22.64453125 30.73828125 C22.52945724 29.98943161 22.41438324 29.24058197 22.29582214 28.46903992 C20.98558641 20.76976712 19.2351709 13.95726343 14 8 C14 7.34 14 6.68 14 6 C10.99049877 4.38274466 8.02896392 3.32417377 4.75 2.375 C3.85796875 2.11460938 2.9659375 1.85421875 2.046875 1.5859375 C1.37140625 1.39257812 0.6959375 1.19921875 0 1 C0 0.67 0 0.34 0 0 Z " fill="#B94043" transform="translate(198,124)"/>
<path d="M0 0 C0.33 0 0.66 0 1 0 C1.57818547 10.87845264 0.46780735 22.48234175 -7 31 C-15.43083931 39.36514446 -30.32234241 39.12945359 -41.40405273 39.19995117 C-45.93739652 39.18207991 -50.46815192 39.11715635 -55 39 C-55 38.67 -55 38.34 -55 38 C-52.61214271 37.7791224 -50.22421031 37.55910643 -47.83618164 37.34008789 C-45.81311406 37.15436098 -43.79016488 36.96733997 -41.76733398 36.77905273 C-33.14192035 35.98545636 -33.14192035 35.98545636 -28.890625 35.75 C-19.6217689 35.22781092 -14.57863437 33.94411406 -8 27 C-7.01 26.67 -6.02 26.34 -5 26 C-1.47884168 18.08130617 -0.97789037 8.52490314 0 0 Z " fill="#BE393D" transform="translate(222,206)"/>
<path d="M0 0 C0.99 0.33 1.98 0.66 3 1 C2.34 1 1.68 1 1 1 C1.33 17.17 1.66 33.34 2 50 C10.39454775 45.80272612 18.45551907 41.50109136 26.48046875 36.70507812 C27.27066406 36.23908203 28.06085938 35.77308594 28.875 35.29296875 C29.57367188 34.8755542 30.27234375 34.45813965 30.9921875 34.02807617 C32.99241601 33.00388329 34.8054469 32.44930522 37 32 C37 32.66 37 33.32 37 34 C34.69 34.66 32.38 35.32 30 36 C30 36.66 30 37.32 30 38 C27.35261084 39.4606285 26.10551666 40 23 40 C23 40.66 23 41.32 23 42 C22.50072998 42.26216309 22.00145996 42.52432617 21.48706055 42.79443359 C19.21964306 43.98625759 16.95356175 45.18060044 14.6875 46.375 C13.50897461 46.99375 13.50897461 46.99375 12.30664062 47.625 C11.54931641 48.02460938 10.79199219 48.42421875 10.01171875 48.8359375 C9.31522217 49.20251465 8.61872559 49.5690918 7.90112305 49.94677734 C6.21744775 50.87953389 4.60151793 51.93232138 3 53 C2.01 53 1.02 53 0 53 C0 35.51 0 18.02 0 0 Z " fill="#BC3034" transform="translate(117,157)"/>
<path d="M0 0 C0.33 0 0.66 0 1 0 C1.77913247 6.30237758 2.1916771 12.50112573 2.31640625 18.84765625 C2.33718735 19.74495956 2.35796844 20.64226288 2.37937927 21.5667572 C2.44412226 24.39860288 2.50340518 27.23053141 2.5625 30.0625 C2.60575702 31.99675294 2.64937344 33.93099788 2.69335938 35.86523438 C2.79972503 40.57674067 2.90119819 45.28832926 3 50 C2.34 50 1.68 50 1 50 C0.95101562 51.04800781 0.90203125 52.09601563 0.8515625 53.17578125 C0.77651857 54.55471354 0.70097143 55.9336185 0.625 57.3125 C0.5940625 58.00279297 0.563125 58.69308594 0.53125 59.40429688 C0.31875081 63.06990789 0.08066139 64.87900792 -2 68 C-1.93433838 66.92645264 -1.86867676 65.85290527 -1.80102539 64.74682617 C-0.99558017 50.94044137 -0.68666406 37.13856311 -0.4375 23.3125 C-0.39417001 21.03840592 -0.35055192 18.76431731 -0.30664062 16.49023438 C-0.20111656 10.99354801 -0.09910741 5.49680562 0 0 Z " fill="#E0181C" transform="translate(221,156)"/>
<path d="M0 0 C1.1694182 3.71066501 0.53456929 6.10000946 -0.49285889 9.83642578 C-1.31757021 13.35482354 -1.35664039 16.83697826 -1.4140625 20.4375 C-1.43342865 21.20304199 -1.4527948 21.96858398 -1.4727478 22.75732422 C-1.53190946 25.17144075 -1.57867144 27.58560665 -1.625 30 C-1.66323837 31.64975889 -1.70229339 33.29949907 -1.7421875 34.94921875 C-1.83907568 38.96604124 -1.91914324 42.98269583 -2 47 C-7.94 47 -13.88 47 -20 47 C-20 34.79 -20 22.58 -20 10 C-17.56641318 13.65038023 -17.75492205 15.40505278 -17.76953125 19.75 C-17.76998947 20.40452148 -17.77044769 21.05904297 -17.7709198 21.73339844 C-17.77393663 23.11525285 -17.78180598 24.49710403 -17.79418945 25.87890625 C-17.81243362 27.99231028 -17.81469911 30.10527546 -17.81445312 32.21875 C-17.85227497 42.55682492 -17.85227497 42.55682492 -19 46 C-13.72 46 -8.44 46 -3 46 C-3.01571045 44.85523193 -3.0314209 43.71046387 -3.04760742 42.53100586 C-3.10213423 38.26138414 -3.13643249 33.99179289 -3.16479492 29.72192383 C-3.17982988 27.87812108 -3.20026333 26.03435378 -3.22631836 24.19067383 C-3.26293561 21.5319745 -3.27977943 18.87375029 -3.29296875 16.21484375 C-3.30845261 15.39789536 -3.32393646 14.58094696 -3.33988953 13.73924255 C-3.34143804 8.4068791 -2.41464348 4.76523067 0 0 Z " fill="#3B3B3B" transform="translate(280,190)"/>
<path d="M0 0 C5.28 0.33 10.56 0.66 16 1 C16 1.66 16 2.32 16 3 C17.19625 3.0825 18.3925 3.165 19.625 3.25 C23.9160474 3.79114452 26.6680176 5.15562478 30 8 C30.75 10.1875 30.75 10.1875 31 12 C31.66 12.33 32.32 12.66 33 13 C32.01 13 31.02 13 30 13 C30 12.34 30 11.68 30 11 C28.68 10.67 27.36 10.34 26 10 C26 9.01 26 8.02 26 7 C24.700625 6.87625 23.40125 6.7525 22.0625 6.625 C20.04150497 6.41824114 18.02070167 6.20960658 16 6 C15.29842773 5.93022949 14.59685547 5.86045898 13.87402344 5.78857422 C11.56075594 5.5560627 9.24917808 5.31027504 6.9375 5.0625 C6.1751001 4.98789551 5.4127002 4.91329102 4.62719727 4.83642578 C2.74231323 4.62829475 0.86874335 4.32234243 -1 4 C-1.33 3.34 -1.66 2.68 -2 2 C-1.34 2 -0.68 2 0 2 C0 1.34 0 0.68 0 0 Z " fill="#E51015" transform="translate(182,122)"/>
<path d="M0 0 C3.99887575 0.57126796 6.59653716 1.87283572 10 4 C11.65369357 4.69822617 13.31727014 5.37498605 15 6 C15 6.66 15 7.32 15 8 C15.5775 8.12375 16.155 8.2475 16.75 8.375 C20.03070569 9.28630714 22.31193719 9.96790579 24.25 12.875 C25 15 25 15 25 19 C22.23776722 21.76223278 19.79293383 21.57856291 16 22 C18.17424117 19.49962266 19.73045798 18.56371414 23 18 C20.17179735 14.83241303 17.32672461 12.98867125 13.65234375 11 C12 10 12 10 10.0625 8 C7.12984859 5.15621682 3.68875724 3.68321932 0 2 C0 1.34 0 0.68 0 0 Z " fill="#E40C0F" transform="translate(138,167)"/>
<path d="M0 0 C0 0.99 0 1.98 0 3 C-13.9915831 4.29667039 -27.96162789 5.37752842 -42 6 C-36.23047384 0.23047384 -23.68361696 1.33642743 -16.0625 0.875 C-14.72326652 0.78838856 -13.38407323 0.70115336 -12.04492188 0.61328125 C-2.51959325 0 -2.51959325 0 0 0 Z " fill="#D02A2B" transform="translate(105,121)"/>
<path d="M0 0 C3.33333333 0 6.66666667 0 10 0 C10.33 1.32 10.66 2.64 11 4 C11.66 4 12.32 4 13 4 C13 10.93 13 17.86 13 25 C6 26 6 26 4 25 C4.33 24.34 4.66 23.68 5 23 C6.98 23 8.96 23 11 23 C11.21133202 15.95559921 11.07965362 9.75887425 9 3 C6.60280568 2.32041397 6.60280568 2.32041397 4 2 C-0.32699011 6.32699011 0.88335161 14.87677317 0.8671875 20.6796875 C0.84806792 23.02561106 0.84806792 23.02561106 2 25 C1.01 25 0.02 25 -1 25 C-1.02886984 21.02084841 -1.04675406 17.04172347 -1.0625 13.0625 C-1.07087891 11.92619141 -1.07925781 10.78988281 -1.08789062 9.61914062 C-1.09111328 8.53955078 -1.09433594 7.45996094 -1.09765625 6.34765625 C-1.10289307 5.34742432 -1.10812988 4.34719238 -1.11352539 3.31665039 C-1 1 -1 1 0 0 Z " fill="#353535" transform="translate(570,169)"/>
<path d="M0 0 C0.66 0 1.32 0 2 0 C3.82438348 3.75608363 4.30070333 5.98949808 3 10 C2.34 10.66 1.68 11.32 1 12 C-0.32 12 -1.64 12 -3 12 C-3.33 12.99 -3.66 13.98 -4 15 C-5.99117408 15.69258229 -7.9921136 16.35747635 -10 17 C-11.62514468 18.45833358 -11.62514468 18.45833358 -13 20 C-16.08771148 21.95555061 -18.37314539 22.20149192 -22 22 C-22 21.34 -22 20.68 -22 20 C-19.35261084 18.5393715 -18.10551666 18 -15 18 C-15 17.34 -15 16.68 -15 16 C-12.35261084 14.5393715 -11.10551666 14 -8 14 C-8 13.34 -8 12.68 -8 12 C-5.36 11.01 -2.72 10.02 0 9 C0.36980013 4.95377498 0.36980013 4.95377498 -2 2 C-1.34 1.34 -0.68 0.68 0 0 Z " fill="#E90B0E" transform="translate(162,177)"/>
<path d="M0 0 C0.33 0 0.66 0 1 0 C1 17.16 1 34.32 1 52 C4.96 50.02 8.92 48.04 13 46 C14.32 45.34 15.64 44.68 17 44 C17 44.66 17 45.32 17 46 C12.61538462 49 12.61538462 49 10 49 C9.79375 49.61875 9.5875 50.2375 9.375 50.875 C7.45224112 53.84653645 5.33405473 54.13024659 2 55 C0 53 0 53 -0.24050903 50.74740601 C-0.2338472 49.34175888 -0.2338472 49.34175888 -0.22705078 47.90771484 C-0.22682419 46.31629166 -0.22682419 46.31629166 -0.22659302 44.69271851 C-0.21110916 42.96923691 -0.21110916 42.96923691 -0.1953125 41.2109375 C-0.1924826 40.03737701 -0.18965271 38.86381653 -0.18673706 37.6546936 C-0.17551355 33.89469338 -0.15040492 30.13492861 -0.125 26.375 C-0.11497301 23.8307326 -0.10584668 21.28646148 -0.09765625 18.7421875 C-0.07556714 12.4947109 -0.04206824 6.24737227 0 0 Z " fill="#E00D0F" transform="translate(116,158)"/>
<path d="M0 0 C2.5 2.0625 2.5 2.0625 4 4 C4 4.66 4 5.32 4 6 C3.34 6 2.68 6 2 6 C1.071875 5.0409375 1.071875 5.0409375 0.125 4.0625 C-2.03520783 1.96582769 -3.08776721 1.41603326 -6 1 C-6 0.34 -6 -0.32 -6 -1 C-8.70979124 -0.91249004 -11.41650748 -0.80555107 -14.125 -0.6875 C-15.26582031 -0.65366211 -15.26582031 -0.65366211 -16.4296875 -0.61914062 C-21.28361499 -0.38899751 -24.78767086 0.34268956 -29 3 C-29.33 3.66 -29.66 4.32 -30 5 C-30.66 5 -31.32 5 -32 5 C-32.28875 5.78375 -32.5775 6.5675 -32.875 7.375 C-34 10 -34 10 -36 12 C-35.67877635 6.69980972 -32.82989867 3.40155474 -29 0 C-20.66654213 -5.39780794 -8.49809403 -4.32630242 0 0 Z " fill="#383838" transform="translate(591,160)"/>
<path d="M0 0 C0.65355469 0.59748047 0.65355469 0.59748047 1.3203125 1.20703125 C11.24021177 10.0318767 21.77256419 11.07827292 34.625 12.125 C35.62917969 12.21136719 36.63335937 12.29773438 37.66796875 12.38671875 C40.11159966 12.59617283 42.55553841 12.80051757 45 13 C45 13.33 45 13.66 45 14 C13.0805144 14.99748393 13.0805144 14.99748393 3 6 C0 2.71875 0 2.71875 0 0 Z " fill="#C03137" transform="translate(53,231)"/>
<path d="M0 0 C0.99 0.495 0.99 0.495 2 1 C2.04898438 2.18335938 2.09796875 3.36671875 2.1484375 4.5859375 C2.65677148 16.00343278 2.65677148 16.00343278 4.59765625 27.25 C5 29 5 29 5 31 C5.66 31.33 6.32 31.66 7 32 C6.67 32.66 6.34 33.32 6 34 C5.34 34 4.68 34 4 34 C3.67 32.35 3.34 30.7 3 29 C2.01 28.67 1.02 28.34 0 28 C0.66 28 1.32 28 2 28 C1.67257813 26.8965625 1.34515625 25.793125 1.0078125 24.65625 C-0.26012023 19.58451908 -0.22325309 14.69985606 -0.125 9.5 C-0.11597656 8.5821875 -0.10695312 7.664375 -0.09765625 6.71875 C-0.07432432 4.47888444 -0.04159235 2.23958817 0 0 Z " fill="#DE1213" transform="translate(49,195)"/>
<path d="M0 0 C0.66 0.33 1.32 0.66 2 1 C2 19.48 2 37.96 2 57 C1.01 56.67 0.02 56.34 -1 56 C-1.33 53.69 -1.66 51.38 -2 49 C-1.34 49 -0.68 49 0 49 C-0.03552979 47.72882324 -0.07105957 46.45764648 -0.10766602 45.14794922 C-0.23833493 40.41811372 -0.36138835 35.68810508 -0.48217773 30.95800781 C-0.53544747 28.91335651 -0.59076434 26.86875745 -0.64819336 24.82421875 C-0.73052508 21.88032289 -0.8054198 18.93631583 -0.87890625 15.9921875 C-0.90594131 15.0825827 -0.93297638 14.17297791 -0.96083069 13.23580933 C-1.06718921 8.68198021 -0.95815373 4.48428849 0 0 Z " fill="#EE0403" transform="translate(115,157)"/>
<path d="M0 0 C6.75188908 0.1719231 11.91738149 1.37556304 17 6 C22.35474108 12.23387768 23.64053879 17.60505248 23.2109375 25.7265625 C23.14132813 26.47679687 23.07171875 27.22703125 23 28 C22.67 28 22.34 28 22 28 C21.84144531 27.05898437 21.68289062 26.11796875 21.51953125 25.1484375 C20.18147805 18.00722538 19.24943485 13.10755823 14 8 C14 7.34 14 6.68 14 6 C10.99049877 4.38274466 8.02896392 3.32417377 4.75 2.375 C3.85796875 2.11460938 2.9659375 1.85421875 2.046875 1.5859375 C1.37140625 1.39257812 0.6959375 1.19921875 0 1 C0 0.67 0 0.34 0 0 Z " fill="#D42D32" transform="translate(198,124)"/>
<path d="M0 0 C0.33 0 0.66 0 1 0 C1 6.93 1 13.86 1 21 C-2.9326813 21.14291379 -6.86537233 21.28550027 -10.7980957 21.42724609 C-12.79314504 21.49930096 -14.78817421 21.57191337 -16.78320312 21.64453125 C-18.66362305 21.71220703 -18.66362305 21.71220703 -20.58203125 21.78125 C-22.31803589 21.8440918 -22.31803589 21.8440918 -24.08911133 21.90820312 C-26.05866602 21.97031439 -28.02946619 22 -30 22 C-28.68 20.35 -27.36 18.7 -26 17 C-25.42709229 17.32669678 -24.85418457 17.65339355 -24.26391602 17.98999023 C-21.84887802 19.06742064 -20.395903 19.22190497 -17.77734375 19.16015625 C-16.99166016 19.14919922 -16.20597656 19.13824219 -15.39648438 19.12695312 C-14.58501953 19.10568359 -13.77355469 19.08441406 -12.9375 19.0625 C-11.32170509 19.02801268 -9.70580974 18.99788497 -8.08984375 18.97265625 C-7.37691162 18.95468994 -6.66397949 18.93672363 -5.92944336 18.91821289 C-4 19 -4 19 -1 20 C-0.67 13.4 -0.34 6.8 0 0 Z " fill="#373737" transform="translate(598,183)"/>
<path d="M0 0 C2.9487944 2.9487944 3.4139372 6.63091866 4.4375 10.5625 C4.87844422 12.20750513 5.32113233 13.85204388 5.765625 15.49609375 C5.97767578 16.28097168 6.18972656 17.06584961 6.40820312 17.87451172 C7.27759251 20.99699687 8.31293081 24.04996527 9.37890625 27.109375 C10.44616298 30.35813134 11.19792617 33.6771227 12 37 C12.33 37.99 12.66 38.98 13 40 C12.01 40 11.02 40 10 40 C8.5692213 34.9481335 7.14525296 29.89441567 5.72753906 24.83886719 C5.24437798 23.11959199 4.75936582 21.40083588 4.27246094 19.68261719 C3.57258647 17.21163181 2.87940811 14.73885118 2.1875 12.265625 C1.96876221 11.49881409 1.75002441 10.73200317 1.5246582 9.94195557 C0.55853783 6.46538015 0 3.63755691 0 0 Z " fill="#3F3F3F" transform="translate(246,151)"/>
<path d="M0 0 C0.99 0.33 1.98 0.66 3 1 C2.34 1 1.68 1 1 1 C1.06682251 7.94208437 1.15655748 14.88359762 1.26245117 21.82519531 C1.2957656 24.18808203 1.32377697 26.55104958 1.34643555 28.9140625 C1.3798617 32.30503893 1.43217147 35.69527016 1.48828125 39.0859375 C1.49467117 40.14743011 1.5010611 41.20892273 1.50764465 42.30258179 C1.53733589 43.77388046 1.53733589 43.77388046 1.56762695 45.27490234 C1.57873001 46.14094086 1.58983307 47.00697937 1.60127258 47.89926147 C1.73285263 48.59250519 1.86443268 49.2857489 2 50 C2.99 50.66 3.98 51.32 5 52 C2.525 52.495 2.525 52.495 0 53 C0 35.51 0 18.02 0 0 Z " fill="#E5393B" transform="translate(117,157)"/>
<path d="M0 0 C0.66 0.66 1.32 1.32 2 2 C-1.92062784 2.84770332 -5.51490327 2.99460727 -9.5 2.875 C-14.12190925 2.84364376 -17.12638795 3.26012806 -21 6 C-23.04088712 8.26152356 -24.64074512 10.28149023 -26 13 C-26.66 13 -27.32 13 -28 13 C-26.59292256 8.52293541 -24.61508525 5.98637477 -21 3 C-14.28431546 -0.47776521 -7.4905194 -0.81695467 0 0 Z " fill="#3A3939" transform="translate(324,157)"/>
<path d="M0 0 C0.99 0.33 1.98 0.66 3 1 C2.54109375 1.32871094 2.0821875 1.65742188 1.609375 1.99609375 C-8.47410564 9.81290963 -9.19972146 21.12088935 -11 33 C-11.33 33 -11.66 33 -12 33 C-11.45991281 11.23448612 -11.45991281 11.23448612 -3.25 2.875 C-2.18118936 1.90049618 -1.10297027 0.93566579 0 0 Z " fill="#BD343A" transform="translate(60,127)"/>
<path d="M0 0 C0.60585938 0.28875 1.21171875 0.5775 1.8359375 0.875 C9.59259124 4.31179427 16.34506635 5.59199019 24.4375 2.5 C25.613125 2.005 26.78875 1.51 28 1 C28.99 1 29.98 1 31 1 C28.43577387 4.13405416 25.85178208 4.93258398 22 6 C14.0857795 6.70695473 7.20052032 6.45624975 0 3 C0 2.01 0 1.02 0 0 Z " fill="#3D3D3D" transform="translate(561,232)"/>
<path d="M0 0 C0.33 0.99 0.66 1.98 1 3 C-1.31975101 7.28261724 -3.41943556 10.20760522 -8 12 C-11.36313835 12.33471993 -14.64630229 12.45705261 -18 12 C-18.66 11.34 -19.32 10.68 -20 10 C-12.37068966 8.96551724 -12.37068966 8.96551724 -9.3125 9.25 C-5.73541472 8.86328808 -4.28536238 6.61184272 -2 4 C-2.66 3.34 -3.32 2.68 -4 2 C-2.68 1.34 -1.36 0.68 0 0 Z " fill="#373737" transform="translate(541,226)"/>
<path d="M0 0 C-4.25715011 2.20197419 -7.52084406 3.12419423 -12.32421875 3.09765625 C-13.35224609 3.09443359 -14.38027344 3.09121094 -15.43945312 3.08789062 C-16.51130859 3.07951172 -17.58316406 3.07113281 -18.6875 3.0625 C-19.77095703 3.05798828 -20.85441406 3.05347656 -21.97070312 3.04882812 C-24.64719085 3.03703743 -27.32356777 3.02058063 -30 3 C-30 2.67 -30 2.34 -30 2 C-26.50056733 1.66052975 -23.00037948 1.32955227 -19.5 1 C-18.51773438 0.90460938 -17.53546875 0.80921875 -16.5234375 0.7109375 C-10.98601633 0.19411152 -5.56118702 -0.10592737 0 0 Z " fill="#C52C2E" transform="translate(197,242)"/>
<path d="M0 0 C1 3 1 3 0.5625 5.25 C-3.03939315 11.58933195 -9.12491666 15.84311111 -16 18 C-16.99 17.67 -17.98 17.34 -19 17 C-15.77208445 14.8480563 -14.71599191 14.79913557 -11 15 C-10.7525 14.360625 -10.505 13.72125 -10.25 13.0625 C-9.63125 12.0415625 -9.63125 12.0415625 -9 11 C-8.34 10.855625 -7.68 10.71125 -7 10.5625 C-6.01 10.2840625 -6.01 10.2840625 -5 10 C-3.86454438 7.70465742 -3.86454438 7.70465742 -3 5 C-2.02763513 3.3170608 -1.03435556 1.64556566 0 0 Z " fill="#E00F13" transform="translate(218,224)"/>
<path d="M0 0 C1.47906892 -0.02689216 2.95827483 -0.04634621 4.4375 -0.0625 C5.26121094 -0.07410156 6.08492188 -0.08570313 6.93359375 -0.09765625 C9 0 9 0 10 1 C10.40807542 7.72124218 9.87346005 14.33986708 9 21 C8.67 21 8.34 21 8 21 C8 14.73 8 8.46 8 2 C5.36 2 2.72 2 0 2 C0 1.34 0 0.68 0 0 Z " fill="#393939" transform="translate(401,144)"/>
<path d="M0 0 C0.66 0 1.32 0 2 0 C2.12375 1.11375 2.2475 2.2275 2.375 3.375 C2.6465813 7.03103677 2.6465813 7.03103677 5 9 C7.41417872 9.58402133 7.41417872 9.58402133 10 9 C12.33630748 6.60140956 12.33630748 6.60140956 14 4 C14.8125 5.6875 14.8125 5.6875 15 8 C12.37314725 11.22727623 10.25219775 13.52753358 6 14 C6 13.34 6 12.68 6 12 C5.401875 11.835 4.80375 11.67 4.1875 11.5 C0.87851431 9.23098124 -0.14148477 5.85128326 -1 2 C-0.67 1.34 -0.34 0.68 0 0 Z " fill="#333333" transform="translate(569,215)"/>
<path d="M0 0 C5.31027254 1.46032495 9.46330032 3.98320986 14 7 C12.63978541 10.21089118 12.35808746 10.84333674 9 12.3125 C6 13 6 13 4 12 C8.75 9 8.75 9 11 9 C7.72291137 5.32966073 4.28477792 3.30718811 0 1 C0 0.67 0 0.34 0 0 Z " fill="#C93033" transform="translate(150,176)"/>
<path d="M0 0 C0.66 0.33 1.32 0.66 2 1 C0.6875 2.5 0.6875 2.5 -1 4 C-1.99 4 -2.98 4 -4 4 C-4.33 5.65 -4.66 7.3 -5 9 C-6.0828125 9.12375 -6.0828125 9.12375 -7.1875 9.25 C-10.55313254 10.14750201 -12.41612816 11.7114278 -15 14 C-15.33 13.34 -15.66 12.68 -16 12 C-12.43569245 8.85014682 -9.59306496 6.4859916 -5 5 C-5 4.34 -5 3.68 -5 3 C-2.625 1.3125 -2.625 1.3125 0 0 Z M-19 13 C-18.01 13.33 -17.02 13.66 -16 14 C-16.99 14.33 -17.98 14.66 -19 15 C-19 14.34 -19 13.68 -19 13 Z " fill="#EF0707" transform="translate(138,199)"/>
<path d="M0 0 C0 3 0 3 -2.1875 5.5625 C-6.51286154 9.31114666 -10.01193658 10.27267217 -15.6875 10.1875 C-16.64011719 10.18105469 -17.59273438 10.17460937 -18.57421875 10.16796875 C-21 10 -21 10 -23 9 C-22.67 8.34 -22.34 7.68 -22 7 C-21.41992188 7.09539062 -20.83984375 7.19078125 -20.2421875 7.2890625 C-15.21078769 8.00308954 -11.77425573 8.06161043 -7 6 C-6.0925 5.71125 -5.185 5.4225 -4.25 5.125 C-1.59487002 3.79743501 -1.00459151 2.73979504 0 0 Z " fill="#424242" transform="translate(469,228)"/>
<path d="M0 0 C0.66 0 1.32 0 2 0 C2.33 1.65 2.66 3.3 3 5 C3.66 5 4.32 5 5 5 C6.56958193 6.67721041 7.9480525 8.46794114 9.3671875 10.2734375 C11.11402358 12.12057039 12.67886222 13.00522667 15 14 C15 14.66 15 15.32 15 16 C9.28463738 14.39255426 3.84082985 10.03127187 0.76171875 4.9609375 C0 3 0 3 0 0 Z " fill="#D52023" transform="translate(50,224)"/>
<path d="M0 0 C0.66 0.33 1.32 0.66 2 1 C1.01 1.33 0.02 1.66 -1 2 C-0.67 3.98 -0.34 5.96 0 8 C-0.33 8 -0.66 8 -1 8 C-1.12117188 8.68707031 -1.24234375 9.37414062 -1.3671875 10.08203125 C-1.53476562 10.98308594 -1.70234375 11.88414062 -1.875 12.8125 C-2.03742187 13.70582031 -2.19984375 14.59914062 -2.3671875 15.51953125 C-3 18 -3 18 -5 21 C-4.17948718 6.64102564 -4.17948718 6.64102564 -2 1 C-1.34 0.67 -0.68 0.34 0 0 Z " fill="#EE0805" transform="translate(56,136)"/>
<path d="M0 0 C2.1390371 1.19534426 3.60484814 2.26730818 5.125 4.1875 C5.125 4.8475 5.125 5.5075 5.125 6.1875 C2.125 5.1875 2.125 5.1875 0.71484375 3.6640625 C-1.32178446 1.77255031 -2.57154913 1.73814272 -5.3125 1.5625 C-8.2863923 1.3511574 -10.99849713 0.9868926 -13.875 0.1875 C-9.71546866 -1.89226567 -4.36191531 -1.2327152 0 0 Z " fill="#393939" transform="translate(535.875,157.8125)"/>
<path d="M0 0 C0.45375 0.66 0.9075 1.32 1.375 2 C1.91125 2.66 2.4475 3.32 3 4 C3.66 4 4.32 4 5 4 C3.52307692 10.52307692 3.52307692 10.52307692 0.875 12.9375 C0.25625 13.288125 -0.3625 13.63875 -1 14 C-0.125 9.125 -0.125 9.125 1 8 C0.8981629 6.08575543 0.8981629 6.08575543 0.5625 3.9375 C0.376875 2.638125 0.19125 1.33875 0 0 Z " fill="#323232" transform="translate(593,219)"/>
<path d="M0 0 C4.7945709 0.58116011 8.01785111 2.37027904 12 5 C13.4375 7.25 13.4375 7.25 14 9 C9.33333333 6.66666667 4.66666667 4.33333333 0 2 C0 1.34 0 0.68 0 0 Z " fill="#DD1317" transform="translate(138,167)"/>
<path d="M0 0 C4.29 0.33 8.58 0.66 13 1 C13 1.66 13 2.32 13 3 C8.38 3 3.76 3 -1 3 C-0.67 2.01 -0.34 1.02 0 0 Z " fill="#CE3038" transform="translate(184,122)"/>
<path d="M0 0 C0.65355469 0.59748047 0.65355469 0.59748047 1.3203125 1.20703125 C5.00994686 4.48936831 8.43077198 6.99399746 13 9 C13 9.66 13 10.32 13 11 C7.78576025 9.63436578 4.79783558 7.70951382 1 4 C0.33203125 1.8359375 0.33203125 1.8359375 0 0 Z " fill="#BF3F40" transform="translate(53,231)"/>
<path d="M0 0 C0.33 0 0.66 0 1 0 C1 2.97 1 5.94 1 9 C2.98 9 4.96 9 7 9 C5 11 5 11 2.4375 11.1875 C0 11 0 11 -1 10 C-1.23880597 2.47761194 -1.23880597 2.47761194 0 0 Z " fill="#424042" transform="translate(393,135)"/>
<path d="M0 0 C6.66157067 0.16962333 11.90447033 1.50241514 17 6 C17.33 6.99 17.66 7.98 18 9 C17.34 9 16.68 9 16 9 C16 8.34 16 7.68 16 7 C15.319375 6.731875 14.63875 6.46375 13.9375 6.1875 C9.21300127 4.27759626 4.54470163 2.30715706 0 0 Z " fill="#BC3F46" transform="translate(198,124)"/>
<path d="M0 0 C1.175625 0.5259375 1.175625 0.5259375 2.375 1.0625 C4.95357601 2.30300466 4.95357601 2.30300466 7.3125 1.125 C7.869375 0.75375 8.42625 0.3825 9 0 C9 0.66 9 1.32 9 2 C5.91111478 4.05925681 5.29064073 4.2390374 1.8125 4.125 C-0.0746875 4.063125 -0.0746875 4.063125 -2 4 C-2 3.01 -2 2.02 -2 1 C-1.34 0.67 -0.68 0.34 0 0 Z " fill="#2E2E2E" transform="translate(369,232)"/>
<path d="M0 0 C3 0 3 0 5.6875 2.375 C8 5 8 5 8 7 C5.08482708 5.92598892 3.22189824 5.22189824 1 3 C0.34 4.32 -0.32 5.64 -1 7 C-1.33 6.34 -1.66 5.68 -2 5 C-1.0625 2.375 -1.0625 2.375 0 0 Z " fill="#3C3B3C" transform="translate(512,229)"/>
<path d="M0 0 C10.55808656 0.96355353 10.55808656 0.96355353 15 2 C15 2.33 15 2.66 15 3 C4.44191344 3.3690205 4.44191344 3.3690205 0 1 C0 0.67 0 0.34 0 0 Z " fill="#E00D0B" transform="translate(65,239)"/>
<path d="M0 0 C0.66 0 1.32 0 2 0 C2.66 0.99 3.32 1.98 4 3 C7.37462715 2.45276317 9.08235 1.9451 12 0 C11.34 1.98 10.68 3.96 10 6 C3.52443609 5.38909774 3.52443609 5.38909774 1.0625 3.5625 C0 2 0 2 0 0 Z " fill="#383838" transform="translate(456,221)"/>
<path d="M0 0 C4.95 0 9.9 0 15 0 C15 0.33 15 0.66 15 1 C8.565 1.495 8.565 1.495 2 2 C1.67 3.32 1.34 4.64 1 6 C0.34 5.01 -0.32 4.02 -1 3 C-0.67 2.01 -0.34 1.02 0 0 Z " fill="#414141" transform="translate(241,130)"/>
<path d="M0 0 C3.70293685 -0.33663062 5.39534381 -0.47736015 8.375 1.875 C10 4 10 4 10 6 C10.66 6.33 11.32 6.66 12 7 C11.01 7 10.02 7 9 7 C9 6.34 9 5.68 9 5 C7.68 4.67 6.36 4.34 5 4 C5 3.01 5 2.02 5 1 C3.35 1 1.7 1 0 1 C0 0.67 0 0.34 0 0 Z " fill="#E60B0A" transform="translate(203,128)"/>
<path d="M0 0 C2.16526269 2.16526269 2.75544982 3.58051386 3.75 6.4375 C4.03359375 7.21996094 4.3171875 8.00242188 4.609375 8.80859375 C5 11 5 11 3 14 C2.49307308 12.4188708 1.99473557 10.83498617 1.5 9.25 C1.2215625 8.36828125 0.943125 7.4865625 0.65625 6.578125 C0 4 0 4 0 0 Z " fill="#3D3D3D" transform="translate(242,136)"/>
<path d="M0 0 C0 3 0 3 -2.3125 5.625 C-5 8 -5 8 -8 9 C-7.25 7.0625 -7.25 7.0625 -6 5 C-4.66666667 4.66666667 -3.33333333 4.33333333 -2 4 C-0.71563266 2.0162233 -0.71563266 2.0162233 0 0 Z " fill="#353535" transform="translate(469,228)"/>
<path d="M0 0 C0 0.33 0 0.66 0 1 C-4.62 1 -9.24 1 -14 1 C-14 0.67 -14 0.34 -14 0 C-4.58997722 -2.66514806 -4.58997722 -2.66514806 0 0 Z " fill="#3C393A" transform="translate(511,236)"/>
<path d="M0 0 C1.4606285 2.64738916 2 3.89448334 2 7 C2.66 7.33 3.32 7.66 4 8 C3.67 8.66 3.34 9.32 3 10 C2.34 10 1.68 10 1 10 C-0.60725635 6.78548731 -0.05748185 3.56387464 0 0 Z " fill="#E80A0D" transform="translate(52,219)"/>
<path d="M0 0 C0.33 0 0.66 0 1 0 C1.48828125 1.98567708 1.9765625 3.97135417 2.46484375 5.95703125 C2.91010705 7.65683202 3.44433985 9.33301954 4 11 C3.01 11 2.02 11 1 11 C0.63890458 9.35567294 0.28629924 7.7094792 -0.0625 6.0625 C-0.25972656 5.14597656 -0.45695313 4.22945312 -0.66015625 3.28515625 C-0.77230469 2.53105469 -0.88445312 1.77695313 -1 1 C-0.67 0.67 -0.34 0.34 0 0 Z " fill="#353535" transform="translate(255,180)"/>
<path d="M0 0 C1.32 0.66 2.64 1.32 4 2 C3.34 2 2.68 2 2 2 C2 2.66 2 3.32 2 4 C0.35 4.66 -1.3 5.32 -3 6 C-3 3 -3 3 -1.5 1.3125 C-0.7575 0.6628125 -0.7575 0.6628125 0 0 Z " fill="#303030" transform="translate(572,200)"/>
<path d="M0 0 C1.45606519 4.52092968 0.27032841 7.51648796 -1 12 C-1.66 11.34 -2.32 10.68 -3 10 C-2.75 8.25 -2.75 8.25 -2 6 C-1.649375 4.9275 -1.29875 3.855 -0.9375 2.75 C-0.4734375 1.38875 -0.4734375 1.38875 0 0 Z " fill="#333333" transform="translate(280,190)"/>
<path d="M0 0 C1.65 0 3.3 0 5 0 C5.33 0.99 5.66 1.98 6 3 C6.99 3.33 7.98 3.66 9 4 C8.67 4.66 8.34 5.32 8 6 C1.125 2.25 1.125 2.25 0 0 Z " fill="#E00F17" transform="translate(119,156)"/>
<path d="M0 0 C3.00617269 3.00617269 2.59585316 5.82381598 3 10 C0.3144406 7.3144406 -0.06049974 4.62378672 -1 1 C-0.67 0.67 -0.34 0.34 0 0 Z " fill="#353535" transform="translate(595,166)"/>
</svg>
